<svg width="1008" height="613" viewBox="0 0 1008 613" fill="none" xmlns="http://www.w3.org/2000/svg">
<g filter="url(#filter0_d)">
<rect x="4" width="1000" height="605" fill="#71AEDB"/>
<path fill-rule="evenodd" clip-rule="evenodd" d="M628.737 134.302V106.379H565.704V134.302H587.503V160.317C587.111 160.368 586.72 160.423 586.329 160.48C564.939 163.613 545.428 175.875 529.665 194.522C529.096 195.195 528.532 195.877 527.973 196.566L515.224 178.249L530.88 155.756L517.137 136.012L472.083 200.742L485.826 220.487L501.481 197.994L514.23 216.311C513.75 217.114 513.276 217.925 512.808 218.742C499.829 241.389 491.294 269.421 489.113 300.153C489.074 300.715 489.036 301.277 489 301.84H470.893L470.893 270.521H451.458V361.082H470.893L470.893 329.763H489C489.036 330.326 489.074 330.889 489.113 331.45C491.294 362.183 499.83 390.216 512.809 412.864C513.277 413.68 513.751 414.49 514.23 415.292L501.481 433.609L485.825 411.116L472.083 430.861L517.137 495.592L530.879 475.847L515.224 453.354L527.973 435.037C528.531 435.726 529.095 436.407 529.663 437.079C545.427 455.727 564.938 467.99 586.329 471.123C586.72 471.181 587.111 471.235 587.503 471.286V497.301H565.704V525.224H628.737V497.301H606.938V471.286C607.33 471.235 607.722 471.181 608.112 471.124C629.502 467.99 649.013 455.728 664.776 437.081C665.345 436.408 665.909 435.727 666.469 435.037L679.217 453.354L663.562 475.847L677.305 495.591L722.358 430.861L708.616 411.116L692.96 433.609L680.211 415.292C680.691 414.489 681.165 413.679 681.634 412.861C694.612 390.214 703.147 362.182 705.328 331.45C705.368 330.889 705.406 330.326 705.441 329.763H723.548V361.082H742.983V270.521L723.548 270.521V301.84H705.441C705.406 301.277 705.368 300.715 705.328 300.153C703.147 269.42 694.612 241.387 681.632 218.739C681.164 217.923 680.691 217.113 680.211 216.311L692.96 197.994L708.616 220.487L722.359 200.742L677.305 136.012L663.562 155.756L679.218 178.249L666.469 196.566C665.91 195.877 665.346 195.197 664.778 194.524C649.015 175.876 629.503 163.613 608.112 160.48C607.722 160.423 607.33 160.368 606.938 160.317V134.302H628.737ZM594.321 190.261C571.344 191.636 550.666 205.481 535.509 227.134C528.887 236.702 523.313 247.802 519.064 260.041C513.238 276.824 509.903 295.748 509.767 315.801C509.781 317.804 509.826 319.795 509.903 321.774C510.207 329.62 511.001 337.273 512.242 344.671C516.108 367.719 524.308 388.286 535.509 404.469C538.832 409.216 542.419 413.587 546.238 417.533C560.571 432.347 578.163 441.184 597.22 441.449C598.326 441.434 599.427 441.39 600.523 441.317C607.125 440.879 613.535 439.412 619.677 437.026C634.761 431.167 648.226 419.765 658.934 404.467C674.637 381.778 684.441 350.477 684.674 315.8C684.519 292.865 680.178 271.407 672.712 252.94C671.872 250.862 670.992 248.821 670.075 246.821C666.818 239.723 663.081 233.129 658.933 227.136C644.012 205.818 623.738 192.067 601.187 190.334C599.872 190.233 598.55 190.173 597.221 190.154C596.25 190.168 595.284 190.203 594.321 190.261ZM533.634 277.115C524.793 285.038 520.078 300.399 522.534 315.624C522.553 315.742 522.573 315.861 522.593 315.98C522.641 316.263 522.691 316.547 522.744 316.83C523.909 323.079 526.154 328.498 529.113 332.785C533.488 339.121 539.422 342.982 545.736 343.387C548.229 343.546 550.78 343.168 553.317 342.191C561.484 339.047 567.614 330.436 570.312 319.832C570.936 317.38 571.376 314.82 571.616 312.197C572.029 307.669 571.843 302.951 570.969 298.265C570.154 293.895 568.812 289.931 567.066 286.477C564.655 281.705 561.475 277.905 557.856 275.35C552.622 271.656 546.47 270.565 540.396 272.904C537.946 273.847 535.68 275.282 533.634 277.115ZM576.052 261.821C575.557 268.592 575.901 275.606 577.201 282.575C577.996 286.839 579.107 290.86 580.487 294.601C582.29 299.489 584.553 303.898 587.175 307.744C588.065 309.05 588.997 310.291 589.966 311.464C598.413 321.69 609.697 326.73 621.173 324.39C622.756 324.067 624.344 323.604 625.928 322.994C645.058 315.629 657.178 289.438 655.219 262.012C655.004 259.011 654.621 255.994 654.06 252.986C653.171 248.219 651.888 243.755 650.274 239.647C650.263 239.617 650.251 239.587 650.239 239.558C641.518 217.445 623.216 205.683 605.334 212.567C602.843 213.526 600.472 214.804 598.235 216.361C585.763 225.046 577.468 242.441 576.052 261.821ZM614.03 351.11C607.37 339.172 596.805 332.523 585.884 334.107C584.431 334.318 582.971 334.674 581.514 335.183C581.269 335.269 581.024 335.359 580.78 335.453C569.485 339.801 561.229 352.313 558.265 367.387C556.752 375.083 556.618 383.447 558.163 391.734C558.666 394.43 559.326 397.005 560.124 399.445C566.554 419.092 581.992 429.963 597.104 424.315C597.181 424.286 597.259 424.257 597.336 424.227C602.719 422.155 607.411 418.228 611.17 413.054C619.324 401.828 623.082 384.727 619.952 367.947C618.769 361.602 616.717 355.926 614.03 351.11ZM621.212 297.708C632.716 293.279 639.543 276.29 636.461 259.762C633.378 243.233 621.553 233.424 610.049 237.853C598.545 242.282 591.718 259.271 594.801 275.8C597.883 292.328 609.708 302.137 621.212 297.708ZM592.62 398.941C599.963 396.115 604.32 385.271 602.353 374.722C600.385 364.173 592.838 357.912 585.495 360.739C578.153 363.566 573.795 374.409 575.763 384.958C577.73 395.508 585.278 401.768 592.62 398.941ZM540.343 310.055C541.307 315.223 545.005 318.29 548.602 316.905C552.199 315.52 554.334 310.208 553.37 305.04C552.406 299.872 548.708 296.805 545.111 298.19C541.514 299.575 539.38 304.887 540.343 310.055Z" fill="#E7E9EC"/>
<path fill-rule="evenodd" clip-rule="evenodd" d="M473.126 54.5173V26.5942H419.621V54.5173H438.125V80.5325C437.792 80.5837 437.46 80.6379 437.128 80.6951C418.971 83.8285 402.41 96.0908 389.03 114.738C388.547 115.411 388.068 116.092 387.593 116.782L376.771 98.4647L390.061 75.9717L378.395 56.2271L340.152 120.958L351.817 140.702L365.106 118.209L375.928 136.526C375.521 137.329 375.118 138.14 374.72 138.957C363.704 161.605 356.459 189.637 354.608 220.368C354.574 220.93 354.542 221.492 354.512 222.055H339.142L339.142 190.736H322.645V281.298H339.142L339.142 249.978H354.512C354.542 250.542 354.574 251.104 354.608 251.665C356.459 282.398 363.704 310.431 374.722 333.079C375.119 333.895 375.521 334.705 375.928 335.508L365.106 353.825L351.817 331.332L340.152 351.076L378.395 415.807L390.06 396.062L376.771 373.569L387.593 355.252C388.067 355.941 388.546 356.622 389.028 357.294C402.409 375.942 418.971 388.205 437.128 391.339C437.46 391.396 437.792 391.45 438.125 391.501V417.517H419.621V445.44H473.126V417.517H454.622V391.501C454.955 391.45 455.287 391.396 455.619 391.339C473.775 388.205 490.337 375.943 503.717 357.296C504.2 356.623 504.679 355.942 505.153 355.252L515.975 373.569L502.686 396.062L514.351 415.807L552.595 351.076L540.93 331.332L527.641 353.825L516.819 335.508C517.226 334.704 517.629 333.894 518.026 333.077C529.043 310.429 536.288 282.397 538.139 251.665C538.173 251.104 538.205 250.542 538.235 249.978H553.605V281.298H570.102V190.736L553.605 190.736V222.055H538.235C538.205 221.492 538.173 220.93 538.139 220.368C536.288 189.636 529.042 161.602 518.025 138.955C517.628 138.138 517.226 137.329 516.819 136.526L527.641 118.209L540.93 140.702L552.595 120.958L514.352 56.227L502.686 75.9716L515.975 98.4646L505.154 116.782C504.679 116.093 504.201 115.412 503.718 114.74C490.338 96.0916 473.776 83.8286 455.619 80.6951C455.287 80.6379 454.955 80.5837 454.622 80.5325V54.5173H473.126ZM443.912 110.476C424.408 111.852 406.856 125.697 393.99 147.35C388.369 156.918 383.638 168.018 380.031 180.257C375.086 197.039 372.254 215.964 372.14 236.016C372.151 238.019 372.19 240.01 372.255 241.989C372.513 249.835 373.187 257.488 374.24 264.886C377.522 287.934 384.482 308.501 393.991 324.685C396.811 329.431 399.856 333.802 403.097 337.749C415.264 352.562 430.197 361.399 446.372 361.664C447.311 361.649 448.246 361.605 449.176 361.532C454.781 361.095 460.222 359.627 465.435 357.242C478.239 351.382 489.668 339.981 498.758 324.682C512.087 301.994 520.409 270.692 520.607 236.016C520.476 213.081 516.791 191.622 510.453 173.155C509.74 171.077 508.994 169.037 508.214 167.037C505.45 159.938 502.278 153.344 498.757 147.351C486.091 126.033 468.882 112.283 449.74 110.549C448.624 110.448 447.502 110.388 446.373 110.369C445.55 110.383 444.729 110.419 443.912 110.476ZM392.399 197.33C384.894 205.253 380.892 220.614 382.977 235.839C382.993 235.958 383.009 236.076 383.026 236.195C383.067 236.479 383.11 236.762 383.155 237.045C384.144 243.295 386.05 248.714 388.561 253C392.274 259.337 397.312 263.197 402.672 263.602C404.787 263.762 406.953 263.383 409.107 262.406C416.039 259.263 421.242 250.651 423.532 240.048C424.062 237.595 424.436 235.036 424.639 232.413C424.99 227.884 424.832 223.166 424.09 218.48C423.398 214.11 422.259 210.147 420.777 206.692C418.73 201.92 416.031 198.12 412.959 195.566C408.516 191.871 403.294 190.781 398.138 193.119C396.059 194.062 394.135 195.497 392.399 197.33ZM428.404 182.036C427.984 188.807 428.277 195.821 429.38 202.79C430.055 207.054 430.998 211.075 432.169 214.816C433.7 219.704 435.621 224.113 437.846 227.96C438.602 229.266 439.393 230.507 440.215 231.68C447.385 241.906 456.964 246.946 466.705 244.605C468.049 244.282 469.396 243.819 470.741 243.209C486.98 235.844 497.268 209.653 495.604 182.228C495.422 179.226 495.097 176.21 494.621 173.202C493.866 168.434 492.777 163.97 491.407 159.862C491.397 159.832 491.387 159.803 491.378 159.773C483.974 137.66 468.439 125.899 453.26 132.783C451.146 133.741 449.133 135.019 447.235 136.577C436.648 145.262 429.607 162.656 428.404 182.036ZM460.642 271.325C454.988 259.387 446.02 252.739 436.751 254.322C435.517 254.533 434.278 254.89 433.041 255.399C432.833 255.484 432.625 255.574 432.418 255.668C422.83 260.017 415.823 272.529 413.307 287.602C412.022 295.298 411.908 303.663 413.22 311.949C413.647 314.645 414.207 317.221 414.885 319.661C420.343 339.307 433.447 350.178 446.274 344.53C446.34 344.502 446.406 344.472 446.471 344.443C451.04 342.37 455.024 338.444 458.214 333.269C465.136 322.043 468.325 304.942 465.669 288.162C464.664 281.818 462.923 276.141 460.642 271.325ZM466.738 217.923C476.503 213.494 482.298 196.505 479.682 179.977C477.065 163.449 467.028 153.64 457.263 158.069C447.498 162.497 441.703 179.487 444.319 196.015C446.936 212.543 456.973 222.352 466.738 217.923ZM442.468 319.157C448.701 316.33 452.399 305.487 450.729 294.937C449.059 284.388 442.653 278.128 436.42 280.954C430.188 283.781 426.489 294.624 428.159 305.174C429.829 315.723 436.236 321.983 442.468 319.157ZM398.094 230.27C398.912 235.438 402.05 238.505 405.104 237.121C408.157 235.736 409.969 230.423 409.151 225.255C408.333 220.087 405.194 217.02 402.141 218.405C399.088 219.79 397.276 225.102 398.094 230.27Z" fill="#2B7EFF"/>
<path d="M75.606 397.46C76.65 397.46 77.694 397.55 78.738 397.73C79.818 397.91 80.79 398.162 81.654 398.486C82.518 398.81 83.22 399.206 83.76 399.674C84.3 400.142 84.57 400.682 84.57 401.294C84.57 402.878 83.67 403.67 81.87 403.67C81.438 403.67 81.024 403.616 80.628 403.508C80.268 403.364 79.836 403.238 79.332 403.13C78.828 402.986 78.198 402.86 77.442 402.752C76.686 402.608 75.75 402.536 74.634 402.536C72.258 402.536 70.422 403.346 69.126 404.966C67.83 406.586 67.182 408.692 67.182 411.284C67.182 414.128 67.83 416.414 69.126 418.142C70.458 419.87 72.33 420.734 74.742 420.734C76.254 420.734 77.478 420.608 78.414 420.356C79.35 420.104 80.106 419.816 80.682 419.492C81.294 419.168 81.78 418.88 82.14 418.628C82.536 418.376 82.968 418.25 83.436 418.25C84.084 418.25 84.588 418.394 84.948 418.682C85.344 418.934 85.542 419.474 85.542 420.302C85.542 421.166 85.2 421.922 84.516 422.57C83.868 423.218 83.04 423.758 82.032 424.19C81.024 424.622 79.926 424.946 78.738 425.162C77.586 425.378 76.524 425.486 75.552 425.486C71.196 425.486 67.776 424.28 65.292 421.868C62.808 419.456 61.566 416.036 61.566 411.608C61.566 409.7 61.854 407.9 62.43 406.208C63.042 404.48 63.942 402.968 65.13 401.672C66.318 400.376 67.776 399.35 69.504 398.594C71.268 397.838 73.302 397.46 75.606 397.46ZM102.61 397.622C104.662 397.622 106.498 397.946 108.118 398.594C109.738 399.206 111.106 400.088 112.222 401.24C113.374 402.392 114.256 403.796 114.868 405.452C115.48 407.108 115.786 408.962 115.786 411.014C115.786 413.282 115.426 415.316 114.706 417.116C114.022 418.916 113.05 420.446 111.79 421.706C110.566 422.966 109.09 423.938 107.362 424.622C105.67 425.306 103.816 425.648 101.8 425.648C99.6038 425.648 97.6598 425.27 95.9678 424.514C94.3118 423.758 92.9078 422.732 91.7558 421.436C90.6398 420.14 89.7938 418.646 89.2178 416.954C88.6418 415.262 88.3538 413.48 88.3538 411.608C88.3538 409.556 88.6778 407.684 89.3258 405.992C90.0098 404.264 90.9638 402.788 92.1878 401.564C93.4478 400.304 94.9598 399.332 96.7238 398.648C98.4878 397.964 100.45 397.622 102.61 397.622ZM102.016 420.68C103.492 420.68 104.752 420.428 105.796 419.924C106.84 419.384 107.686 418.682 108.334 417.818C109.018 416.954 109.504 415.982 109.792 414.902C110.116 413.786 110.278 412.634 110.278 411.446C110.278 410.222 110.116 409.088 109.792 408.044C109.504 406.964 109.036 406.028 108.388 405.236C107.776 404.444 106.966 403.832 105.958 403.4C104.986 402.932 103.816 402.698 102.448 402.698C101.044 402.698 99.8198 402.932 98.7758 403.4C97.7318 403.868 96.8498 404.516 96.1298 405.344C95.4458 406.136 94.9238 407.09 94.5638 408.206C94.2038 409.322 94.0238 410.528 94.0238 411.824C94.0238 414.452 94.6898 416.594 96.0218 418.25C97.3898 419.87 99.3878 420.68 102.016 420.68ZM132.874 422.84C132.082 424.496 131.128 425.324 130.012 425.324C128.968 425.324 128.05 424.496 127.258 422.84C126.97 422.264 126.646 421.544 126.286 420.68C125.926 419.78 125.548 418.826 125.152 417.818C124.756 416.774 124.342 415.712 123.91 414.632C123.478 413.552 123.046 412.544 122.614 411.608C121.174 408.44 120.058 405.956 119.266 404.156C118.474 402.356 118.078 400.916 118.078 399.836C118.078 399.224 118.258 398.72 118.618 398.324C119.014 397.928 119.536 397.73 120.184 397.73C120.58 397.73 120.994 397.892 121.426 398.216C121.894 398.54 122.362 399.152 122.83 400.052C124.198 402.788 125.458 405.578 126.61 408.422C127.798 411.23 128.95 414.092 130.066 417.008C131.182 414.092 132.316 411.23 133.468 408.422C134.656 405.578 135.934 402.788 137.302 400.052C137.77 399.152 138.22 398.54 138.652 398.216C139.12 397.892 139.552 397.73 139.948 397.73C140.596 397.73 141.1 397.928 141.46 398.324C141.856 398.72 142.054 399.224 142.054 399.836C142.054 400.916 141.658 402.356 140.866 404.156C140.074 405.956 138.958 408.44 137.518 411.608C137.086 412.544 136.654 413.552 136.222 414.632C135.79 415.712 135.376 416.774 134.98 417.818C134.584 418.826 134.206 419.78 133.846 420.68C133.486 421.544 133.162 422.264 132.874 422.84ZM147.151 421.652C147.079 420.32 147.007 418.808 146.935 417.116C146.899 415.388 146.881 413.498 146.881 411.446C146.881 408.89 146.899 406.712 146.935 404.912C146.971 403.076 147.061 401.582 147.205 400.43C147.385 399.242 147.655 398.378 148.015 397.838C148.375 397.262 148.879 396.974 149.527 396.974C150.139 396.974 150.679 397.19 151.147 397.622C151.615 398.054 151.885 398.99 151.957 400.43C152.173 404.21 152.281 407.864 152.281 411.392C152.281 413.192 152.245 414.884 152.173 416.468C152.101 418.016 152.029 419.726 151.957 421.598C151.921 422.462 151.831 423.128 151.687 423.596C151.579 424.064 151.417 424.424 151.201 424.676C150.985 424.928 150.733 425.072 150.445 425.108C150.193 425.18 149.887 425.216 149.527 425.216C148.879 425.216 148.339 425 147.907 424.568C147.475 424.1 147.223 423.128 147.151 421.652ZM149.581 387.2C150.409 387.2 151.165 387.524 151.849 388.172C152.569 388.82 152.929 389.594 152.929 390.494C152.929 391.358 152.569 392.114 151.849 392.762C151.129 393.374 150.319 393.68 149.419 393.68C148.663 393.68 147.943 393.374 147.259 392.762C146.611 392.114 146.287 391.322 146.287 390.386C146.287 389.522 146.611 388.784 147.259 388.172C147.943 387.524 148.717 387.2 149.581 387.2ZM181.472 424.892C180.752 424.892 180.14 424.604 179.636 424.028C179.168 423.452 178.844 422.786 178.664 422.03C178.232 422.426 177.728 422.822 177.152 423.218C176.612 423.614 175.982 423.992 175.262 424.352C174.542 424.676 173.75 424.946 172.886 425.162C172.022 425.378 171.086 425.486 170.078 425.486C168.854 425.486 167.486 425.288 165.974 424.892C164.498 424.46 163.094 423.74 161.762 422.732C160.466 421.688 159.368 420.284 158.468 418.52C157.604 416.756 157.172 414.542 157.172 411.878C157.172 409.61 157.514 407.594 158.198 405.83C158.882 404.066 159.836 402.59 161.06 401.402C162.32 400.178 163.796 399.26 165.488 398.648C167.216 398 169.088 397.676 171.104 397.676C172.832 397.676 174.2 397.874 175.208 398.27C176.216 398.666 177.008 399.134 177.584 399.674C177.584 398.702 177.584 397.604 177.584 396.38C177.584 395.12 177.584 393.914 177.584 392.762C177.62 391.574 177.638 390.494 177.638 389.522C177.674 388.55 177.71 387.812 177.746 387.308C177.818 386.084 178.034 385.256 178.394 384.824C178.754 384.356 179.384 384.122 180.284 384.122C181.22 384.122 181.85 384.356 182.174 384.824C182.534 385.256 182.75 386.03 182.822 387.146C182.858 387.614 182.876 388.244 182.876 389.036C182.912 389.828 182.93 390.692 182.93 391.628C182.93 392.564 182.93 393.518 182.93 394.49C182.966 395.426 182.984 396.29 182.984 397.082C182.984 397.838 182.984 398.468 182.984 398.972C182.984 399.476 182.984 399.728 182.984 399.728C182.984 403.4 182.948 406.784 182.876 409.88C182.84 412.976 182.822 415.442 182.822 417.278C182.894 417.674 183.038 418.052 183.254 418.412C183.506 418.772 183.758 419.132 184.01 419.492C184.298 419.852 184.55 420.23 184.766 420.626C184.982 421.022 185.09 421.436 185.09 421.868C185.09 422.372 184.964 422.822 184.712 423.218C184.46 423.578 184.136 423.884 183.74 424.136C183.38 424.388 182.984 424.586 182.552 424.73C182.156 424.838 181.796 424.892 181.472 424.892ZM171.05 420.14C173.282 420.14 174.992 419.474 176.18 418.142C177.368 416.81 177.962 414.614 177.962 411.554C177.962 405.686 175.64 402.752 170.996 402.752C169.916 402.752 168.872 402.914 167.864 403.238C166.856 403.562 165.956 404.066 165.164 404.75C164.408 405.434 163.778 406.298 163.274 407.342C162.806 408.386 162.572 409.628 162.572 411.068C162.572 412.256 162.734 413.39 163.058 414.47C163.418 415.55 163.94 416.522 164.624 417.386C165.344 418.214 166.226 418.88 167.27 419.384C168.35 419.888 169.61 420.14 171.05 420.14ZM218.702 411.5C217.046 411.572 215.138 411.644 212.978 411.716C210.818 411.752 208.262 411.77 205.31 411.77C204.086 411.77 203.042 411.752 202.178 411.716C201.314 411.68 200.612 411.59 200.072 411.446C199.532 411.266 199.136 410.996 198.884 410.636C198.632 410.276 198.506 409.772 198.506 409.124C198.506 408.8 198.542 408.512 198.614 408.26C198.686 407.972 198.848 407.72 199.1 407.504C199.352 407.288 199.694 407.108 200.126 406.964C200.594 406.784 201.188 406.658 201.908 406.586C202.448 406.55 202.916 406.514 203.312 406.478C203.744 406.442 204.158 406.424 204.554 406.424C204.95 406.388 205.364 406.37 205.796 406.37C206.264 406.37 206.804 406.37 207.416 406.37C209.36 406.37 211.232 406.388 213.032 406.424C214.832 406.424 216.704 406.478 218.648 406.586C219.512 406.658 220.178 406.766 220.646 406.91C221.114 407.018 221.474 407.18 221.726 407.396C221.978 407.612 222.122 407.864 222.158 408.152C222.23 408.44 222.266 408.764 222.266 409.124C222.266 409.772 222.032 410.312 221.564 410.744C221.132 411.176 220.178 411.428 218.702 411.5ZM233.847 421.652C233.775 420.356 233.721 419.006 233.685 417.602C233.685 416.198 233.667 414.686 233.631 413.066C233.595 411.446 233.577 409.7 233.577 407.828C233.577 405.92 233.577 403.796 233.577 401.456V394.706L230.337 396.38C229.437 396.956 228.717 397.298 228.177 397.406C227.673 397.514 227.115 397.568 226.503 397.568C225.963 397.568 225.477 397.334 225.045 396.866C224.649 396.398 224.451 395.84 224.451 395.192C224.451 394.544 224.667 393.986 225.099 393.518C225.567 393.014 226.107 392.564 226.719 392.168C227.511 391.628 228.357 391.088 229.257 390.548C230.193 390.008 231.093 389.522 231.957 389.09C232.821 388.622 233.613 388.262 234.333 388.01C235.089 387.722 235.719 387.578 236.223 387.578C236.475 387.578 236.727 387.614 236.979 387.686C237.267 387.758 237.519 387.902 237.735 388.118C237.987 388.334 238.185 388.676 238.329 389.144C238.509 389.576 238.617 390.17 238.653 390.926C238.725 392.222 238.779 393.356 238.815 394.328C238.851 395.3 238.887 396.254 238.923 397.19C238.959 398.09 238.977 399.044 238.977 400.052C238.977 401.06 238.977 402.23 238.977 403.562C238.977 405.182 238.977 406.73 238.977 408.206C238.977 409.682 238.959 411.14 238.923 412.58C238.887 414.02 238.851 415.478 238.815 416.954C238.779 418.43 238.725 419.978 238.653 421.598C238.617 422.462 238.527 423.128 238.383 423.596C238.275 424.064 238.113 424.424 237.897 424.676C237.681 424.928 237.429 425.072 237.141 425.108C236.889 425.18 236.583 425.216 236.223 425.216C235.575 425.216 235.035 425 234.603 424.568C234.171 424.1 233.919 423.128 233.847 421.652ZM269.737 402.428C269.737 405.452 269.215 408.35 268.171 411.122C267.127 413.858 265.831 416.288 264.283 418.412C262.735 420.5 261.097 422.174 259.369 423.434C257.641 424.658 256.093 425.27 254.725 425.27C254.149 425.27 253.555 425.144 252.943 424.892C252.367 424.604 252.079 424.172 252.079 423.596C252.079 423.344 252.151 423.092 252.295 422.84C252.439 422.588 252.655 422.3 252.943 421.976C253.231 421.652 253.591 421.274 254.023 420.842C254.491 420.374 255.031 419.834 255.643 419.222C256.291 418.574 256.975 417.836 257.695 417.008C258.451 416.18 259.171 415.298 259.855 414.362C260.539 413.426 261.151 412.454 261.691 411.446C262.231 410.438 262.627 409.448 262.879 408.476C261.655 409.556 260.287 410.294 258.775 410.69C257.263 411.086 255.931 411.284 254.779 411.284C253.303 411.284 251.899 411.032 250.567 410.528C249.271 409.988 248.119 409.214 247.111 408.206C246.103 407.162 245.293 405.884 244.681 404.372C244.105 402.824 243.817 401.042 243.817 399.026C243.817 397.262 244.105 395.624 244.681 394.112C245.257 392.6 246.067 391.286 247.111 390.17C248.191 389.018 249.469 388.118 250.945 387.47C252.457 386.822 254.131 386.498 255.967 386.498C257.767 386.498 259.495 386.75 261.151 387.254C262.807 387.758 264.265 388.622 265.525 389.846C266.821 391.07 267.847 392.708 268.603 394.76C269.359 396.812 269.737 399.368 269.737 402.428ZM263.581 399.296C263.581 396.92 262.951 395.03 261.691 393.626C260.467 392.222 258.613 391.52 256.129 391.52C255.229 391.52 254.365 391.682 253.537 392.006C252.709 392.294 251.971 392.78 251.323 393.464C250.675 394.112 250.153 394.958 249.757 396.002C249.397 397.01 249.217 398.234 249.217 399.674C249.217 400.574 249.379 401.42 249.703 402.212C250.063 403.004 250.549 403.706 251.161 404.318C251.809 404.894 252.547 405.362 253.375 405.722C254.239 406.046 255.193 406.208 256.237 406.208C258.541 406.208 260.341 405.578 261.637 404.318C262.933 403.058 263.581 401.384 263.581 399.296Z" fill="#EE3333"/>
</g>
<defs>
<filter id="filter0_d" x="0" y="0" width="1008" height="613" filterUnits="userSpaceOnUse" color-interpolation-filters="sRGB">
<feFlood flood-opacity="0" result="BackgroundImageFix"/>
<feColorMatrix in="SourceAlpha" type="matrix" values="0 0 0 0 0 0 0 0 0 0 0 0 0 0 0 0 0 0 127 0"/>
<feOffset dy="4"/>
<feGaussianBlur stdDeviation="2"/>
<feColorMatrix type="matrix" values="0 0 0 0 0 0 0 0 0 0 0 0 0 0 0 0 0 0 0.25 0"/>
<feBlend mode="normal" in2="BackgroundImageFix" result="effect1_dropShadow"/>
<feBlend mode="normal" in="SourceGraphic" in2="effect1_dropShadow" result="shape"/>
</filter>
</defs>
</svg>
