<svg width="289" height="285" viewBox="0 0 289 285" fill="none" xmlns="http://www.w3.org/2000/svg">
<path d="M286 126.5C286 196.364 228.469 253 157.5 253C86.5314 253 29 196.364 29 126.5C29 56.636 86.5314 0 157.5 0C228.469 0 286 56.636 286 126.5Z" fill="black"/>
<path d="M24.9997 260.5L48.9999 189.5L63.4999 211L57.4999 229L75.4999 223L97.5001 237L24.9997 260.5Z" fill="black"/>
<ellipse cx="158" cy="127.5" rx="107" ry="107.5" fill="white"/>
<path d="M142.4 157.221C142.4 148.288 143.485 141.174 145.654 135.879C147.824 130.583 151.779 125.383 157.521 120.279C163.327 115.111 167.188 110.932 169.102 107.742C171.016 104.488 171.973 101.075 171.973 97.502C171.973 86.7194 166.996 81.3281 157.043 81.3281C152.322 81.3281 148.525 82.7956 145.654 85.7305C142.847 88.6016 141.38 92.5892 141.252 97.6934H113.498C113.626 85.5072 117.549 75.9688 125.27 69.0781C133.053 62.1875 143.645 58.7422 157.043 58.7422C170.569 58.7422 181.064 62.028 188.529 68.5996C195.994 75.1074 199.727 84.3268 199.727 96.2578C199.727 101.681 198.514 106.817 196.09 111.666C193.665 116.451 189.423 121.779 183.361 127.648L175.609 135.018C170.76 139.675 167.985 145.13 167.283 151.383L166.9 157.221H142.4ZM139.625 186.602C139.625 182.327 141.061 178.818 143.932 176.074C146.867 173.267 150.599 171.863 155.129 171.863C159.659 171.863 163.359 173.267 166.23 176.074C169.165 178.818 170.633 182.327 170.633 186.602C170.633 190.812 169.197 194.29 166.326 197.033C163.519 199.777 159.786 201.148 155.129 201.148C150.471 201.148 146.707 199.777 143.836 197.033C141.029 194.29 139.625 190.812 139.625 186.602Z" fill="black"/>
<path d="M55.1599 230.143L79.8289 161.783L124.633 208.809L55.1599 230.143Z" fill="white"/>
</svg>
