<svg width="482" height="292" viewBox="0 0 482 292" fill="none" xmlns="http://www.w3.org/2000/svg">
<path d="M242.177 173.143C241.475 173.654 240.525 173.654 239.823 173.143L66.7013 47.1169C65.1357 45.9772 65.9419 43.5 67.8784 43.5L414.122 43.5C416.058 43.5 416.864 45.9772 415.299 47.1169L242.177 173.143Z" fill="#B61010"/>
<path d="M242.177 173.143C241.475 173.654 240.525 173.654 239.823 173.143L66.7013 47.1169C65.1357 45.9772 65.9419 43.5 67.8784 43.5L414.122 43.5C416.058 43.5 416.864 45.9772 415.299 47.1169L242.177 173.143Z" fill="#B61010"/>
<path d="M242.177 173.143C241.475 173.654 240.525 173.654 239.823 173.143L66.7013 47.1169C65.1357 45.9772 65.9419 43.5 67.8784 43.5L414.122 43.5C416.058 43.5 416.864 45.9772 415.299 47.1169L242.177 173.143Z" fill="#B61010"/>
<path d="M242.177 173.143C241.475 173.654 240.525 173.654 239.823 173.143L66.7013 47.1169C65.1357 45.9772 65.9419 43.5 67.8784 43.5L414.122 43.5C416.058 43.5 416.864 45.9772 415.299 47.1169L242.177 173.143Z" fill="#B61010"/>
<path d="M242.177 173.143C241.475 173.654 240.525 173.654 239.823 173.143L66.7013 47.1169C65.1357 45.9772 65.9419 43.5 67.8784 43.5L414.122 43.5C416.058 43.5 416.864 45.9772 415.299 47.1169L242.177 173.143Z" fill="#B61010"/>
<path d="M285.185 166.61C284.1 165.811 284.1 164.189 285.185 163.39L429.064 57.363C430.384 56.3898 432.25 57.3327 432.25 58.973L432.25 271.027C432.25 272.667 430.384 273.61 429.064 272.637L285.185 166.61Z" fill="#B61010"/>
<path d="M285.185 166.61C284.1 165.811 284.1 164.189 285.185 163.39L429.064 57.363C430.384 56.3898 432.25 57.3327 432.25 58.973L432.25 271.027C432.25 272.667 430.384 273.61 429.064 272.637L285.185 166.61Z" fill="#B61010"/>
<path d="M285.185 166.61C284.1 165.811 284.1 164.189 285.185 163.39L429.064 57.363C430.384 56.3898 432.25 57.3327 432.25 58.973L432.25 271.027C432.25 272.667 430.384 273.61 429.064 272.637L285.185 166.61Z" fill="#B61010"/>
<path d="M285.185 166.61C284.1 165.811 284.1 164.189 285.185 163.39L429.064 57.363C430.384 56.3898 432.25 57.3327 432.25 58.973L432.25 271.027C432.25 272.667 430.384 273.61 429.064 272.637L285.185 166.61Z" fill="#B61010"/>
<path d="M285.185 166.61C284.1 165.811 284.1 164.189 285.185 163.39L429.064 57.363C430.384 56.3898 432.25 57.3327 432.25 58.973L432.25 271.027C432.25 272.667 430.384 273.61 429.064 272.637L285.185 166.61Z" fill="#039BAF"/>
<path d="M196.815 162.39C197.9 163.189 197.9 164.811 196.815 165.61L52.9365 271.637C51.616 272.61 49.75 271.667 49.75 270.027L49.75 57.973C49.75 56.3327 51.616 55.3898 52.9365 56.3629L196.815 162.39Z" fill="#B61010"/>
<path d="M196.815 162.39C197.9 163.189 197.9 164.811 196.815 165.61L52.9365 271.637C51.616 272.61 49.75 271.667 49.75 270.027L49.75 57.973C49.75 56.3327 51.616 55.3898 52.9365 56.3629L196.815 162.39Z" fill="#B61010"/>
<path d="M196.815 162.39C197.9 163.189 197.9 164.811 196.815 165.61L52.9365 271.637C51.616 272.61 49.75 271.667 49.75 270.027L49.75 57.973C49.75 56.3327 51.616 55.3898 52.9365 56.3629L196.815 162.39Z" fill="#B61010"/>
<path d="M196.815 162.39C197.9 163.189 197.9 164.811 196.815 165.61L52.9365 271.637C51.616 272.61 49.75 271.667 49.75 270.027L49.75 57.973C49.75 56.3327 51.616 55.3898 52.9365 56.3629L196.815 162.39Z" fill="#B61010"/>
<path d="M196.815 162.39C197.9 163.189 197.9 164.811 196.815 165.61L52.9365 271.637C51.616 272.61 49.75 271.667 49.75 270.027L49.75 57.973C49.75 56.3327 51.616 55.3898 52.9365 56.3629L196.815 162.39Z" fill="#039BAF"/>
<path d="M214.5 171C250.755 206.809 252.109 181.518 269 171L422 283.998H64L214.5 171Z" fill="#039BAF"/>
</svg>
