<svg width="1002" height="474" viewBox="0 0 1002 474" fill="none" xmlns="http://www.w3.org/2000/svg">
<rect width="1002" height="474" fill="#000B6D"/>
<g filter="url(#filter0_d)">
<path d="M376.554 180.222C375.326 181.736 372.063 178.838 369.185 177.952L361.817 175.681C361.817 175.681 348.113 173.236 339.711 175.681C338.012 176.175 337.06 176.483 335.413 177.195C334.194 177.721 332.342 178.709 332.342 178.709C332.342 178.709 328.821 180.197 326.816 181.736C324.365 183.617 321.29 187.791 321.29 187.791L317.605 192.332L313.921 199.144C313.921 199.144 312.38 202.342 311.465 204.442C310.45 206.771 309.009 210.497 309.009 210.497L306.552 220.336C306.552 220.336 305.508 231.525 306.552 238.5C306.911 240.897 307.267 242.202 307.781 244.555C308.234 246.633 308.391 247.841 309.009 249.853C309.767 252.326 310.346 253.652 311.465 255.908C312.715 258.43 315.149 261.963 315.149 261.963C315.149 261.963 320.058 268.039 323.746 271.045C327.324 273.962 329.558 275.231 333.571 277.1C336.836 278.622 338.73 279.374 342.167 280.128C348.069 281.422 351.6 281.304 357.518 280.128C359.701 279.694 363.045 278.614 363.045 278.614L367.957 276.343L378.396 268.018C378.396 268.018 380.929 266.954 382.08 268.018C382.938 268.811 384.043 269.872 384.536 271.045C388.975 281.601 395.589 291.481 397.431 296.022C399.274 300.563 397.431 302.077 397.431 302.077C397.431 302.077 383.308 311.159 382.694 313.43C382.081 315.7 383.922 316.457 383.922 316.457C383.922 316.457 395.07 322.396 398.66 330.081L398.748 330.269C399.23 331.3 399.53 331.941 399.888 333.108C400.909 336.437 401.123 338.714 400.502 342.19C400.109 344.389 397.431 350.516 397.431 350.516C397.431 350.516 393.352 358.507 387.607 360.355C384.59 361.325 382.674 361.15 379.624 360.355C377.097 359.697 375.604 359.146 373.484 357.327C370.531 354.795 369.259 352.378 367.957 348.245C366.48 343.553 366.629 340.334 367.343 335.379C367.927 331.325 369.969 329.62 370.413 325.539C370.669 323.196 371.027 320.241 370.413 319.484C369.8 318.728 368.571 319.484 368.571 319.484C368.571 319.484 365.501 321.755 363.659 322.512C361.817 323.269 353.834 322.512 353.834 322.512C350.15 322.512 349.536 324.026 349.536 324.026C349.536 324.026 349.488 324.951 349.536 325.539C349.858 329.496 355.062 330.837 355.676 332.351C356.291 333.865 356.59 338.965 355.676 342.947C355.325 344.479 355.109 345.364 354.448 346.731C353.407 348.886 352.472 349.91 350.764 351.273C349.863 351.991 348.308 352.786 348.308 352.786C348.308 352.786 346.507 354.01 345.237 354.3C344.058 354.569 343.343 354.59 342.167 354.3C340.59 353.911 339.636 352.91 338.483 352.029C337.33 351.149 336.81 349.905 336.027 349.002C335.395 348.274 334.799 346.731 334.799 346.731L333.571 343.704L332.956 340.677C332.956 340.677 333.037 337.362 333.571 335.379C334.282 332.732 334.939 331.162 336.641 329.324C337.692 328.188 339.076 328.588 339.711 327.053C340.256 325.737 339.711 323.269 339.711 323.269C339.266 323.049 338.483 323.269 338.483 323.269C338.483 323.269 336.229 323.457 334.799 323.269C332.309 322.942 328.658 320.998 328.658 320.998C328.658 320.998 325.389 319.075 323.132 318.728C321.704 318.508 321.904 317.214 319.447 318.728C316.991 320.241 316.991 327.053 316.991 327.053C316.991 327.053 317.176 329.426 317.605 330.837C318.212 332.833 319.448 333.386 320.062 335.379C320.663 337.333 320.676 340.677 320.676 340.677C320.676 340.677 321.406 345.74 321.29 349.002C321.172 352.303 320.062 357.327 320.062 357.327L316.991 364.139L312.693 367.924C312.693 367.924 309.868 370.342 307.781 370.951C305.68 371.564 302.254 372.465 302.254 372.465C302.254 372.465 300.368 372.7 299.184 372.465C296.423 371.916 295.114 371.339 293.043 369.437C291.271 367.809 289.359 364.139 289.359 364.139C289.359 364.139 287.174 359.257 286.903 355.814C286.621 352.235 286.903 346.731 286.903 346.731C286.903 346.731 288.166 342.432 289.359 339.92C290.911 336.653 290.902 336.578 293.043 333.865C294.821 331.613 296.992 328.657 299.184 327.053C300.754 325.904 301.945 325.997 303.482 324.782C305.481 323.203 307.781 320.998 307.781 320.998L309.623 317.971C309.827 316.962 310.237 316.003 310.237 314.186C310.237 312.37 308.599 310.402 307.781 310.402L304.71 307.375L301.026 303.59L296.728 299.806C296.728 299.806 294.57 296.909 293.043 297.536C292.078 297.932 291.852 298.842 291.201 299.806C289.965 301.638 289.35 302.841 288.745 305.104C288.215 307.089 288.534 308.372 288.131 310.402C287.644 312.855 287.198 314.194 286.289 316.457C285.138 319.322 284.448 321.019 282.605 323.269C281.139 325.058 280.255 326.219 278.306 327.053C276.041 328.023 272.166 327.053 272.166 327.053C272.166 327.053 268.163 326.389 266.025 324.782C263.56 322.929 262.357 320.713 261.113 317.971C260.261 316.093 259.885 312.673 259.885 312.673C259.885 312.673 259.823 305.943 261.113 302.077C262.354 298.359 263.518 296.322 266.025 293.751C268.665 291.045 270.745 290.529 274.008 289.21C277.717 287.711 282.604 289.21 283.833 286.939C285.061 284.669 283.833 281.642 283.833 281.642C283.833 281.642 282.009 277.914 280.763 275.587C278.305 270.998 278.294 265.757 274.008 264.234C271.463 263.329 269.735 263.85 267.253 264.991C266.249 265.452 265.728 265.848 264.797 266.504C262.715 267.971 261.753 269.193 259.885 271.045C258.162 272.753 257.254 273.797 255.587 275.587C253.409 277.924 252.325 279.434 250.06 281.642C247.764 283.879 246.57 285.408 243.92 286.939C241.653 288.25 240.282 289.148 237.779 289.21C235.569 289.265 233.276 287.949 232.253 287.696C231.229 287.444 225.498 282.398 225.498 282.398L223.042 278.614C223.042 278.614 221.539 273.633 221.2 270.289C220.903 267.356 220.966 265.662 221.2 262.72C221.439 259.72 221.814 256.665 222.428 255.151C223.042 253.638 225.498 249.853 225.498 249.853C225.498 249.853 228.845 247.145 231.639 246.069C234.386 245.012 236.09 244.502 239.007 244.555C241.688 244.604 245.762 246.069 245.762 246.069C245.762 246.069 249.493 247.95 251.902 249.097C253.814 250.006 254.8 250.905 256.815 251.367C258.936 251.854 260.193 251.629 262.341 251.367C263.793 251.19 264.639 251.171 266.025 250.61C267.862 249.867 269.168 249.493 270.324 247.583C271.23 246.084 271.16 244.848 271.552 243.042C273.224 235.332 271.552 222.606 271.552 222.606C271.552 222.606 271.22 221.655 270.938 221.093C270.224 219.671 269.622 218.97 268.482 218.065C266.622 216.591 265.131 216.068 262.955 216.552C261.372 216.903 260.755 218.057 259.271 218.822C256.961 220.013 255.634 221.123 253.13 221.093C250.324 221.059 248.491 220.34 246.376 218.065C244.671 216.232 243.306 212.01 243.306 212.01L242.692 203.685L244.534 196.873C244.534 196.873 247.376 192.131 250.06 190.818C252.958 189.401 257.019 190.061 258.043 190.818C259.066 191.575 262.32 194.745 264.797 197.63C265.783 198.778 266.369 199.39 267.253 200.657C268.035 201.778 268.202 202.699 269.096 203.685C269.74 204.395 270.938 205.199 270.938 205.199C270.938 205.199 272.051 206.949 273.394 206.712C274.895 206.448 275.85 204.442 275.85 202.171V196.873C275.85 196.873 276.251 193.584 275.85 191.575C275.389 189.261 274.499 188.233 273.394 186.277C272.324 184.383 271.616 183.407 270.324 181.736C269.856 181.131 269.625 180.744 269.096 180.222C266.1 177.268 262.856 178.539 259.271 180.222C258.269 180.693 257.829 181.306 256.815 181.736C254.32 182.793 252.714 183.717 250.06 183.25C248.559 182.985 246.376 181.736 246.376 181.736L243.306 180.222C243.306 180.222 240.566 179.124 239.007 177.952C237.43 176.765 235.777 174.727 235.34 174.188L235.323 174.167C234.914 173.663 232.819 169.724 231.639 166.599C230.774 164.309 230.066 163.047 229.797 160.544C229.642 159.108 229.697 158.266 229.791 156.847L229.797 156.76C230.018 153.401 230.707 151.602 231.639 148.434C232.444 145.697 232.823 144.075 234.095 141.622C235.921 138.1 240.235 134.054 240.235 134.054C240.235 134.054 243.392 131.121 245.762 130.269C248.755 129.194 250.681 129.558 253.744 130.269C255.98 130.789 257.291 131.159 259.271 132.54C260.023 133.065 261.318 134.054 261.113 134.054L262.955 136.324C263.914 137.507 264.619 137.994 265.411 139.352C266.478 141.179 267.253 144.65 267.253 144.65L267.868 146.92L269.096 149.948L270.324 152.975C270.324 152.975 271.478 154.792 272.166 156.003C272.662 156.875 273.394 158.273 273.394 158.273L274.622 160.544L275.85 162.058L277.692 164.328L280.148 166.599L282.605 168.112C282.605 168.112 284.083 168.693 285.061 168.869C286.484 169.126 287.338 169.241 288.745 168.869C289.359 168.707 289.636 169.059 290.587 168.112C291.539 167.166 291.815 167.355 293.043 165.842C293.763 164.955 296.114 162.058 296.114 162.058C296.114 162.058 297.588 160.635 298.57 159.787C299.278 159.175 298.814 159.236 299.184 158.273C299.492 157.472 299.354 156.864 299.184 156.003C298.901 154.567 298.235 153.961 297.342 152.975C296.697 152.265 296.286 151.904 295.5 151.462C294.6 150.956 294.003 151 293.043 150.705C292.084 150.409 291.421 150.602 290.587 149.948C290.015 149.499 289.799 149.07 289.359 148.434C288.452 147.122 287.799 145.518 287.517 144.65C287.235 143.782 287.384 142.793 287.517 141.622C287.769 139.393 289.359 136.324 289.359 136.324C289.359 136.324 290.585 133.672 291.815 132.54C292.675 131.75 293.231 131.347 294.272 131.026C295.435 130.668 297.342 131.026 297.342 131.026C297.342 131.026 300.292 131.676 301.412 133.054C302.272 134.112 303.64 136.324 303.64 136.324C303.64 136.324 304.624 138.726 304.868 140.352C305.044 141.522 305.19 142.211 305 143.379C304.709 145.168 302.868 145.986 302.868 147.5C302.868 149.014 304.618 150.137 305.938 150.705C306.618 150.997 307.781 150.705 307.781 150.705L309.009 149.948C309.009 149.948 311.175 147.94 312.693 146.92C314.297 145.843 315.297 145.491 316.991 144.65C318.892 143.706 321.904 142.379 321.904 142.379C321.904 142.379 325.476 141.416 326.816 139.352C327.486 138.32 327.729 137.588 328.044 136.324C328.608 134.064 328.806 132.44 328.044 130.269C327.701 129.291 327.318 128.867 326.816 127.999C325.925 126.458 325.388 125.62 324.36 124.215C323.452 122.973 322.696 122.544 321.904 121.187C320.837 119.36 319.547 118.275 318.833 115.889C318.329 114.202 318.219 113.146 318.219 111.348C318.219 109.55 318.379 108.515 318.833 106.807C319.436 104.543 321.29 101.509 321.29 101.509C321.29 101.509 323.726 98.026 325.588 96.2107C327.362 94.4808 329.273 93.1836 330.5 92.4264C331.728 91.6692 333.515 92.083 335.413 92.4264C337.14 92.7389 338.12 93.055 339.711 93.9401C340.985 94.6491 342.781 96.2107 342.781 96.2107C342.781 96.2107 345.957 98.9303 347.08 101.509C347.905 103.405 347.989 104.691 348.308 106.807C348.92 110.875 349.047 113.366 348.308 117.403C347.974 119.226 347.693 120.235 347.08 121.944C346.164 124.494 344.681 125.336 344.009 127.999C343.227 131.104 342.782 135.567 344.009 136.324C345.237 137.081 348.878 136.153 351.992 136.324C358.768 136.697 362.679 136.991 369.185 139.352C375.773 141.742 382.08 142.379 385.15 148.434C388.221 154.489 388.221 152.975 387.607 157.516C386.992 162.058 377.782 178.709 376.554 180.222Z" fill="#D50000"/>
<path d="M376.554 180.222C375.326 181.736 372.063 178.838 369.185 177.952L361.817 175.681C361.817 175.681 348.113 173.236 339.711 175.681C338.012 176.175 337.06 176.483 335.413 177.195C334.194 177.721 332.342 178.709 332.342 178.709C332.342 178.709 328.821 180.197 326.816 181.736C324.365 183.617 321.29 187.791 321.29 187.791L317.605 192.332L313.921 199.144C313.921 199.144 312.38 202.342 311.465 204.442C310.45 206.771 309.009 210.497 309.009 210.497L306.552 220.336C306.552 220.336 305.508 231.525 306.552 238.5C306.911 240.897 307.267 242.202 307.781 244.555C308.234 246.633 308.391 247.841 309.009 249.853C309.767 252.326 310.346 253.652 311.465 255.908C312.715 258.43 315.149 261.963 315.149 261.963C315.149 261.963 320.058 268.039 323.746 271.045C327.324 273.962 329.558 275.231 333.571 277.1C336.836 278.622 338.73 279.374 342.167 280.128C348.069 281.422 351.6 281.304 357.518 280.128C359.701 279.694 363.045 278.614 363.045 278.614L367.957 276.343L378.396 268.018C378.396 268.018 380.929 266.954 382.08 268.018C382.938 268.811 384.043 269.872 384.536 271.045C388.975 281.601 395.589 291.481 397.431 296.022C399.274 300.563 397.431 302.077 397.431 302.077C397.431 302.077 383.308 311.159 382.694 313.43C382.081 315.7 383.922 316.457 383.922 316.457C383.922 316.457 395.07 322.396 398.66 330.081L398.748 330.269C399.23 331.3 399.53 331.941 399.888 333.108C400.909 336.437 401.123 338.714 400.502 342.19C400.109 344.389 397.431 350.516 397.431 350.516C397.431 350.516 393.352 358.507 387.607 360.355C384.59 361.325 382.674 361.15 379.624 360.355C377.097 359.697 375.604 359.146 373.484 357.327C370.531 354.795 369.259 352.378 367.957 348.245C366.48 343.553 366.629 340.334 367.343 335.379C367.927 331.325 369.969 329.62 370.413 325.539C370.669 323.196 371.027 320.241 370.413 319.484C369.8 318.728 368.571 319.484 368.571 319.484C368.571 319.484 365.501 321.755 363.659 322.512C361.817 323.269 353.834 322.512 353.834 322.512C350.15 322.512 349.536 324.026 349.536 324.026C349.536 324.026 349.488 324.951 349.536 325.539C349.858 329.496 355.062 330.837 355.676 332.351C356.291 333.865 356.59 338.965 355.676 342.947C355.325 344.479 355.109 345.364 354.448 346.731C353.407 348.886 352.472 349.91 350.764 351.273C349.863 351.991 348.308 352.786 348.308 352.786C348.308 352.786 346.507 354.01 345.237 354.3C344.058 354.569 343.343 354.59 342.167 354.3C340.59 353.911 339.636 352.91 338.483 352.029C337.33 351.149 336.81 349.905 336.027 349.002C335.395 348.274 334.799 346.731 334.799 346.731L333.571 343.704L332.956 340.677C332.956 340.677 333.037 337.362 333.571 335.379C334.282 332.732 334.939 331.162 336.641 329.324C337.692 328.188 339.076 328.588 339.711 327.053C340.256 325.737 339.711 323.269 339.711 323.269C339.266 323.049 338.483 323.269 338.483 323.269C338.483 323.269 336.229 323.457 334.799 323.269C332.309 322.942 328.658 320.998 328.658 320.998C328.658 320.998 325.389 319.075 323.132 318.728C321.704 318.508 321.904 317.214 319.447 318.728C316.991 320.241 316.991 327.053 316.991 327.053C316.991 327.053 317.176 329.426 317.605 330.837C318.212 332.833 319.448 333.386 320.062 335.379C320.663 337.333 320.676 340.677 320.676 340.677C320.676 340.677 321.406 345.74 321.29 349.002C321.172 352.303 320.062 357.327 320.062 357.327L316.991 364.139L312.693 367.924C312.693 367.924 309.868 370.342 307.781 370.951C305.68 371.564 302.254 372.465 302.254 372.465C302.254 372.465 300.368 372.7 299.184 372.465C296.423 371.916 295.114 371.339 293.043 369.437C291.271 367.809 289.359 364.139 289.359 364.139C289.359 364.139 287.174 359.257 286.903 355.814C286.621 352.235 286.903 346.731 286.903 346.731C286.903 346.731 288.166 342.432 289.359 339.92C290.911 336.653 290.902 336.578 293.043 333.865C294.821 331.613 296.992 328.657 299.184 327.053C300.754 325.904 301.945 325.997 303.482 324.782C305.481 323.203 307.781 320.998 307.781 320.998L309.623 317.971C309.827 316.962 310.237 316.003 310.237 314.186C310.237 312.37 308.599 310.402 307.781 310.402L304.71 307.375L301.026 303.59L296.728 299.806C296.728 299.806 294.57 296.909 293.043 297.536C292.078 297.932 291.852 298.842 291.201 299.806C289.965 301.638 289.35 302.841 288.745 305.104C288.215 307.089 288.534 308.372 288.131 310.402C287.644 312.855 287.198 314.194 286.289 316.457C285.138 319.322 284.448 321.019 282.605 323.269C281.139 325.058 280.255 326.219 278.306 327.053C276.041 328.023 272.166 327.053 272.166 327.053C272.166 327.053 268.163 326.389 266.025 324.782C263.56 322.929 262.357 320.713 261.113 317.971C260.261 316.093 259.885 312.673 259.885 312.673C259.885 312.673 259.823 305.943 261.113 302.077C262.354 298.359 263.518 296.322 266.025 293.751C268.665 291.045 270.745 290.529 274.008 289.21C277.717 287.711 282.604 289.21 283.833 286.939C285.061 284.669 283.833 281.642 283.833 281.642C283.833 281.642 282.009 277.914 280.763 275.587C278.305 270.998 278.294 265.757 274.008 264.234C271.463 263.329 269.735 263.85 267.253 264.991C266.249 265.452 265.728 265.848 264.797 266.504C262.715 267.971 261.753 269.193 259.885 271.045C258.162 272.753 257.254 273.797 255.587 275.587C253.409 277.924 252.325 279.434 250.06 281.642C247.764 283.879 246.57 285.408 243.92 286.939C241.653 288.25 240.282 289.148 237.779 289.21C235.569 289.265 233.276 287.949 232.253 287.696C231.229 287.444 225.498 282.398 225.498 282.398L223.042 278.614C223.042 278.614 221.539 273.633 221.2 270.289C220.903 267.356 220.966 265.662 221.2 262.72C221.439 259.72 221.814 256.665 222.428 255.151C223.042 253.638 225.498 249.853 225.498 249.853C225.498 249.853 228.845 247.145 231.639 246.069C234.386 245.012 236.09 244.502 239.007 244.555C241.688 244.604 245.762 246.069 245.762 246.069C245.762 246.069 249.493 247.95 251.902 249.097C253.814 250.006 254.8 250.905 256.815 251.367C258.936 251.854 260.193 251.629 262.341 251.367C263.793 251.19 264.639 251.171 266.025 250.61C267.862 249.867 269.168 249.493 270.324 247.583C271.23 246.084 271.16 244.848 271.552 243.042C273.224 235.332 271.552 222.606 271.552 222.606C271.552 222.606 271.22 221.655 270.938 221.093C270.224 219.671 269.622 218.97 268.482 218.065C266.622 216.591 265.131 216.068 262.955 216.552C261.372 216.903 260.755 218.057 259.271 218.822C256.961 220.013 255.634 221.123 253.13 221.093C250.324 221.059 248.491 220.34 246.376 218.065C244.671 216.232 243.306 212.01 243.306 212.01L242.692 203.685L244.534 196.873C244.534 196.873 247.376 192.131 250.06 190.818C252.958 189.401 257.019 190.061 258.043 190.818C259.066 191.575 262.32 194.745 264.797 197.63C265.783 198.778 266.369 199.39 267.253 200.657C268.035 201.778 268.202 202.699 269.096 203.685C269.74 204.395 270.938 205.199 270.938 205.199C270.938 205.199 272.051 206.949 273.394 206.712C274.895 206.448 275.85 204.442 275.85 202.171V196.873C275.85 196.873 276.251 193.584 275.85 191.575C275.389 189.261 274.499 188.233 273.394 186.277C272.324 184.383 271.616 183.407 270.324 181.736C269.856 181.131 269.625 180.744 269.096 180.222C266.1 177.268 262.856 178.539 259.271 180.222C258.269 180.693 257.829 181.306 256.815 181.736C254.32 182.793 252.714 183.717 250.06 183.25C248.559 182.985 246.376 181.736 246.376 181.736L243.306 180.222C243.306 180.222 240.566 179.124 239.007 177.952C237.43 176.765 235.777 174.727 235.34 174.188L235.323 174.167C234.914 173.663 232.819 169.724 231.639 166.599C230.774 164.309 230.066 163.047 229.797 160.544C229.642 159.108 229.697 158.266 229.791 156.847L229.797 156.76C230.018 153.401 230.707 151.602 231.639 148.434C232.444 145.697 232.823 144.075 234.095 141.622C235.921 138.1 240.235 134.054 240.235 134.054C240.235 134.054 243.392 131.121 245.762 130.269C248.755 129.194 250.681 129.558 253.744 130.269C255.98 130.789 257.291 131.159 259.271 132.54C260.023 133.065 261.318 134.054 261.113 134.054L262.955 136.324C263.914 137.507 264.619 137.994 265.411 139.352C266.478 141.179 267.253 144.65 267.253 144.65L267.868 146.92L269.096 149.948L270.324 152.975C270.324 152.975 271.478 154.792 272.166 156.003C272.662 156.875 273.394 158.273 273.394 158.273L274.622 160.544L275.85 162.058L277.692 164.328L280.148 166.599L282.605 168.112C282.605 168.112 284.083 168.693 285.061 168.869C286.484 169.126 287.338 169.241 288.745 168.869C289.359 168.707 289.636 169.059 290.587 168.112C291.539 167.166 291.815 167.355 293.043 165.842C293.763 164.955 296.114 162.058 296.114 162.058C296.114 162.058 297.588 160.635 298.57 159.787C299.278 159.175 298.814 159.236 299.184 158.273C299.492 157.472 299.354 156.864 299.184 156.003C298.901 154.567 298.235 153.961 297.342 152.975C296.697 152.265 296.286 151.904 295.5 151.462C294.6 150.956 294.003 151 293.043 150.705C292.084 150.409 291.421 150.602 290.587 149.948C290.015 149.499 289.799 149.07 289.359 148.434C288.452 147.122 287.799 145.518 287.517 144.65C287.235 143.782 287.384 142.793 287.517 141.622C287.769 139.393 289.359 136.324 289.359 136.324C289.359 136.324 290.585 133.672 291.815 132.54C292.675 131.75 293.231 131.347 294.272 131.026C295.435 130.668 297.342 131.026 297.342 131.026C297.342 131.026 300.292 131.676 301.412 133.054C302.272 134.112 303.64 136.324 303.64 136.324C303.64 136.324 304.624 138.726 304.868 140.352C305.044 141.522 305.19 142.211 305 143.379C304.709 145.168 302.868 145.986 302.868 147.5C302.868 149.014 304.618 150.137 305.938 150.705C306.618 150.997 307.781 150.705 307.781 150.705L309.009 149.948C309.009 149.948 311.175 147.94 312.693 146.92C314.297 145.843 315.297 145.491 316.991 144.65C318.892 143.706 321.904 142.379 321.904 142.379C321.904 142.379 325.476 141.416 326.816 139.352C327.486 138.32 327.729 137.588 328.044 136.324C328.608 134.064 328.806 132.44 328.044 130.269C327.701 129.291 327.318 128.867 326.816 127.999C325.925 126.458 325.388 125.62 324.36 124.215C323.452 122.973 322.696 122.544 321.904 121.187C320.837 119.36 319.547 118.275 318.833 115.889C318.329 114.202 318.219 113.146 318.219 111.348C318.219 109.55 318.379 108.515 318.833 106.807C319.436 104.543 321.29 101.509 321.29 101.509C321.29 101.509 323.726 98.026 325.588 96.2107C327.362 94.4808 329.273 93.1836 330.5 92.4264C331.728 91.6692 333.515 92.083 335.413 92.4264C337.14 92.7389 338.12 93.055 339.711 93.9401C340.985 94.6491 342.781 96.2107 342.781 96.2107C342.781 96.2107 345.957 98.9303 347.08 101.509C347.905 103.405 347.989 104.691 348.308 106.807C348.92 110.875 349.047 113.366 348.308 117.403C347.974 119.226 347.693 120.235 347.08 121.944C346.164 124.494 344.681 125.336 344.009 127.999C343.227 131.104 342.782 135.567 344.009 136.324C345.237 137.081 348.878 136.153 351.992 136.324C358.768 136.697 362.679 136.991 369.185 139.352C375.773 141.742 382.08 142.379 385.15 148.434C388.221 154.489 388.221 152.975 387.607 157.516C386.992 162.058 377.782 178.709 376.554 180.222Z" stroke="black"/>
</g>
<g filter="url(#filter1_d)">
<path d="M366.789 244.666C362.152 244.666 358.079 243.691 354.569 241.741C351.102 239.748 348.394 236.975 346.444 233.421C344.494 229.868 343.519 225.73 343.519 221.006C343.519 216.24 344.472 212.101 346.379 208.591C348.329 205.038 351.059 202.286 354.569 200.336C358.079 198.386 362.152 197.411 366.789 197.411C371.425 197.411 375.477 198.386 378.944 200.336C382.454 202.286 385.184 205.038 387.134 208.591C389.084 212.101 390.059 216.24 390.059 221.006C390.059 225.73 389.084 229.868 387.134 233.421C385.184 236.975 382.454 239.748 378.944 241.741C375.477 243.691 371.425 244.666 366.789 244.666ZM366.789 234.656C370.169 234.656 372.812 233.465 374.719 231.081C376.669 228.655 377.644 225.296 377.644 221.006C377.644 216.716 376.69 213.38 374.784 210.996C372.877 208.613 370.212 207.421 366.789 207.421C363.365 207.421 360.7 208.613 358.794 210.996C356.887 213.38 355.934 216.716 355.934 221.006C355.934 225.296 356.887 228.655 358.794 231.081C360.7 233.465 363.365 234.656 366.789 234.656ZM397.12 243.951V198.126H419.155C424.355 198.126 428.364 199.405 431.18 201.961C434.04 204.475 435.47 207.985 435.47 212.491C435.47 215.915 434.604 218.796 432.87 221.136C431.18 223.433 428.71 225.036 425.46 225.946C427.887 226.596 429.837 228.265 431.31 230.951L438.46 243.951H425.33L417.4 229.391C416.88 228.481 416.209 227.831 415.385 227.441C414.605 227.051 413.695 226.856 412.655 226.856H409.08V243.951H397.12ZM409.08 218.406H417.01C421.734 218.406 424.095 216.543 424.095 212.816C424.095 209.133 421.734 207.291 417.01 207.291H409.08V218.406ZM464.796 244.666C460.16 244.666 456.086 243.691 452.576 241.741C449.11 239.748 446.401 236.975 444.451 233.421C442.501 229.868 441.526 225.73 441.526 221.006C441.526 216.24 442.48 212.101 444.386 208.591C446.336 205.038 449.066 202.286 452.576 200.336C456.086 198.386 460.16 197.411 464.796 197.411C469.433 197.411 473.485 198.386 476.951 200.336C480.461 202.286 483.191 205.038 485.141 208.591C487.091 212.101 488.066 216.24 488.066 221.006C488.066 225.73 487.091 229.868 485.141 233.421C483.191 236.975 480.461 239.748 476.951 241.741C473.485 243.691 469.433 244.666 464.796 244.666ZM464.796 234.656C468.176 234.656 470.82 233.465 472.726 231.081C474.676 228.655 475.651 225.296 475.651 221.006C475.651 216.716 474.698 213.38 472.791 210.996C470.885 208.613 468.22 207.421 464.796 207.421C461.373 207.421 458.708 208.613 456.801 210.996C454.895 213.38 453.941 216.716 453.941 221.006C453.941 225.296 454.895 228.655 456.801 231.081C458.708 233.465 461.373 234.656 464.796 234.656ZM495.128 243.951V198.126H503.903L524.963 224.386V198.126H536.013V243.951H527.303L506.243 217.691V243.951H495.128ZM538.861 243.951L560.311 198.126H569.736L591.186 243.951H579.226L575.261 234.656H554.786L550.821 243.951H538.861ZM564.926 210.606L558.686 225.491H571.296L565.056 210.606H564.926ZM604.855 243.951L583.99 198.126H596.73L609.86 228.611L622.99 198.126H635.275L614.345 243.951H604.855ZM637.887 243.951V198.126H649.847V243.951H637.887ZM658.136 243.951V198.126H680.171C685.371 198.126 689.379 199.405 692.196 201.961C695.056 204.475 696.486 207.985 696.486 212.491C696.486 215.915 695.619 218.796 693.886 221.136C692.196 223.433 689.726 225.036 686.476 225.946C688.902 226.596 690.852 228.265 692.326 230.951L699.476 243.951H686.346L678.416 229.391C677.896 228.481 677.224 227.831 676.401 227.441C675.621 227.051 674.711 226.856 673.671 226.856H670.096V243.951H658.136ZM670.096 218.406H678.026C682.749 218.406 685.111 216.543 685.111 212.816C685.111 209.133 682.749 207.291 678.026 207.291H670.096V218.406ZM724.309 244.666C717.636 244.666 712.523 242.976 708.969 239.596C705.459 236.216 703.704 231.168 703.704 224.451V198.126H715.664V224.581C715.664 227.918 716.401 230.431 717.874 232.121C719.348 233.811 721.493 234.656 724.309 234.656C727.083 234.656 729.206 233.811 730.679 232.121C732.153 230.431 732.889 227.918 732.889 224.581V198.126H744.654V224.451C744.654 231.168 742.921 236.216 739.454 239.596C736.031 242.976 730.983 244.666 724.309 244.666ZM769.682 244.666C766.086 244.666 762.641 244.233 759.347 243.366C756.054 242.456 753.346 241.265 751.222 239.791L754.537 230.496C756.531 231.84 758.871 232.901 761.557 233.681C764.244 234.461 766.952 234.851 769.682 234.851C772.542 234.851 774.536 234.483 775.662 233.746C776.832 232.966 777.417 232.013 777.417 230.886C777.417 229.89 777.006 229.088 776.182 228.481C775.402 227.875 773.994 227.355 771.957 226.921L764.352 225.296C756.119 223.52 752.002 219.208 752.002 212.361C752.002 209.371 752.804 206.75 754.407 204.496C756.054 202.243 758.329 200.51 761.232 199.296C764.136 198.04 767.516 197.411 771.372 197.411C774.536 197.411 777.526 197.866 780.342 198.776C783.202 199.643 785.521 200.835 787.297 202.351L783.982 211.061C782.336 209.848 780.429 208.916 778.262 208.266C776.096 207.573 773.756 207.226 771.242 207.226C768.816 207.226 766.952 207.66 765.652 208.526C764.352 209.35 763.702 210.433 763.702 211.776C763.702 212.73 764.092 213.51 764.872 214.116C765.652 214.723 767.039 215.243 769.032 215.676L776.572 217.301C784.936 219.078 789.117 223.281 789.117 229.911C789.117 232.901 788.316 235.501 786.712 237.711C785.109 239.921 782.856 241.633 779.952 242.846C777.049 244.06 773.626 244.666 769.682 244.666Z" fill="#23CAFF"/>
</g>
<g filter="url(#filter2_d)">
<path d="M466.123 317.653C462.889 317.653 460.129 316.95 457.842 315.546C455.556 314.108 453.792 312.067 452.55 309.421C451.342 306.775 450.737 303.622 450.737 299.964C450.737 296.305 451.342 293.169 452.55 290.556C453.792 287.91 455.556 285.884 457.842 284.48C460.129 283.042 462.889 282.324 466.123 282.324C471.056 282.324 474.943 283.875 477.785 286.979L476.707 288.694C475.172 287.158 473.555 286.048 471.856 285.362C470.158 284.676 468.23 284.333 466.074 284.333C461.86 284.333 458.61 285.705 456.323 288.449C454.069 291.16 452.942 294.998 452.942 299.964C452.942 304.929 454.069 308.784 456.323 311.528C458.61 314.272 461.86 315.644 466.074 315.644C468.23 315.644 470.158 315.301 471.856 314.615C473.555 313.929 475.172 312.818 476.707 311.283L477.785 312.998C474.943 316.101 471.056 317.653 466.123 317.653ZM497.555 317.653C494.452 317.653 491.773 316.934 489.519 315.497C487.265 314.059 485.517 312.018 484.276 309.372C483.067 306.726 482.463 303.59 482.463 299.964C482.463 296.305 483.067 293.169 484.276 290.556C485.485 287.91 487.216 285.884 489.47 284.48C491.724 283.042 494.419 282.324 497.555 282.324C500.691 282.324 503.386 283.042 505.64 284.48C507.927 285.884 509.674 287.91 510.883 290.556C512.092 293.169 512.696 296.289 512.696 299.915C512.696 303.573 512.075 306.726 510.834 309.372C509.625 312.018 507.894 314.059 505.64 315.497C503.386 316.934 500.691 317.653 497.555 317.653ZM497.555 315.644C501.671 315.644 504.856 314.272 507.11 311.528C509.364 308.784 510.491 304.929 510.491 299.964C510.491 294.998 509.364 291.16 507.11 288.449C504.889 285.705 501.704 284.333 497.555 284.333C493.472 284.333 490.303 285.705 488.049 288.449C485.795 291.16 484.668 294.998 484.668 299.964C484.668 304.896 485.795 308.751 488.049 311.528C490.303 314.272 493.472 315.644 497.555 315.644ZM530.499 317.261L515.652 282.716H517.857L531.626 314.762L545.395 282.716H547.551L532.704 317.261H530.499ZM552.647 317.261V282.716H554.705V317.261H552.647ZM564.131 317.261V282.716H574.764C580.187 282.716 584.352 284.186 587.259 287.126C590.199 290.033 591.669 294.312 591.669 299.964C591.669 305.582 590.199 309.878 587.259 312.851C584.352 315.791 580.187 317.261 574.764 317.261H564.131ZM566.189 315.35H574.568C584.499 315.35 589.464 310.221 589.464 299.964C589.464 289.739 584.499 284.627 574.568 284.627H566.189V315.35ZM598.657 305.207V303.345H611.593V305.207H598.657ZM622.08 317.261V315.35H630.018V285.46L623.648 289.723L622.57 288.106L630.557 282.716H632.076V315.35H639.524V317.261H622.08ZM657.292 317.653C655.593 317.653 653.845 317.244 652.049 316.428C650.285 315.611 648.88 314.549 647.835 313.243L648.815 311.479C650.023 312.883 651.363 313.929 652.833 314.615C654.303 315.301 655.805 315.644 657.341 315.644C660.836 315.644 663.547 314.288 665.475 311.577C667.402 308.833 668.366 304.766 668.366 299.376V295.897C667.778 298.412 666.569 300.388 664.74 301.826C662.943 303.263 660.787 303.982 658.272 303.982C656.181 303.982 654.335 303.524 652.735 302.61C651.167 301.695 649.925 300.421 649.011 298.788C648.129 297.154 647.688 295.292 647.688 293.202C647.688 291.078 648.145 289.2 649.06 287.567C649.974 285.933 651.216 284.659 652.784 283.745C654.384 282.797 656.214 282.324 658.272 282.324C662.192 282.324 665.197 283.777 667.288 286.685C669.411 289.592 670.473 293.675 670.473 298.935C670.473 304.978 669.313 309.617 666.994 312.851C664.674 316.052 661.44 317.653 657.292 317.653ZM658.468 301.973C660.166 301.973 661.653 301.597 662.927 300.846C664.233 300.094 665.246 299.065 665.965 297.759C666.716 296.419 667.092 294.884 667.092 293.153C667.092 291.421 666.716 289.902 665.965 288.596C665.246 287.256 664.233 286.211 662.927 285.46C661.653 284.708 660.166 284.333 658.468 284.333C656.769 284.333 655.266 284.708 653.96 285.46C652.686 286.211 651.673 287.256 650.922 288.596C650.203 289.902 649.844 291.421 649.844 293.153C649.844 294.884 650.203 296.419 650.922 297.759C651.673 299.065 652.686 300.094 653.96 300.846C655.266 301.597 656.769 301.973 658.468 301.973Z" fill="white"/>
<path d="M457.842 315.546L457.576 315.969L457.581 315.972L457.842 315.546ZM452.55 309.421L452.096 309.628L452.098 309.633L452.55 309.421ZM452.55 290.556L452.098 290.343L452.097 290.346L452.55 290.556ZM457.842 284.48L458.104 284.906L458.108 284.903L457.842 284.48ZM477.785 286.979L478.209 287.245L478.412 286.922L478.154 286.641L477.785 286.979ZM476.707 288.694L476.354 289.047L476.797 289.491L477.131 288.96L476.707 288.694ZM471.856 285.362L471.669 285.825L471.669 285.825L471.856 285.362ZM456.323 288.449L455.939 288.129L455.939 288.129L456.323 288.449ZM456.323 311.528L455.937 311.845L455.939 311.848L456.323 311.528ZM471.856 314.615L472.044 315.078L472.044 315.078L471.856 314.615ZM476.707 311.283L477.131 311.017L476.797 310.486L476.354 310.929L476.707 311.283ZM477.785 312.998L478.154 313.335L478.412 313.054L478.209 312.732L477.785 312.998ZM466.123 317.153C462.963 317.153 460.297 316.467 458.104 315.12L457.581 315.972C459.961 317.434 462.816 318.153 466.123 318.153V317.153ZM458.108 315.122C455.91 313.74 454.207 311.775 453.003 309.208L452.098 309.633C453.376 312.358 455.202 314.477 457.576 315.969L458.108 315.122ZM453.005 309.213C451.833 306.647 451.237 303.569 451.237 299.964H450.237C450.237 303.676 450.851 306.903 452.096 309.628L453.005 309.213ZM451.237 299.964C451.237 296.359 451.833 293.298 453.004 290.766L452.097 290.346C450.85 293.04 450.237 296.252 450.237 299.964H451.237ZM453.003 290.768C454.207 288.202 455.908 286.255 458.104 284.906L457.581 284.054C455.203 285.514 453.377 287.617 452.098 290.343L453.003 290.768ZM458.108 284.903C460.301 283.525 462.965 282.824 466.123 282.824V281.824C462.814 281.824 459.957 282.56 457.576 284.056L458.108 284.903ZM466.123 282.824C470.942 282.824 474.686 284.335 477.417 287.316L478.154 286.641C475.201 283.416 471.17 281.824 466.123 281.824V282.824ZM477.362 286.713L476.284 288.428L477.131 288.96L478.209 287.245L477.362 286.713ZM477.061 288.34C475.487 286.766 473.815 285.613 472.044 284.898L471.669 285.825C473.295 286.482 474.857 287.551 476.354 289.047L477.061 288.34ZM472.044 284.898C470.276 284.184 468.283 283.833 466.074 283.833V284.833C468.177 284.833 470.04 285.167 471.669 285.825L472.044 284.898ZM466.074 283.833C461.742 283.833 458.338 285.25 455.939 288.129L456.708 288.769C458.882 286.16 461.979 284.833 466.074 284.833V283.833ZM455.939 288.129C453.585 290.961 452.442 294.929 452.442 299.964H453.442C453.442 295.068 454.554 291.359 456.708 288.768L455.939 288.129ZM452.442 299.964C452.442 304.999 453.585 308.982 455.937 311.845L456.71 311.21C454.554 308.586 453.442 304.859 453.442 299.964H452.442ZM455.939 311.848C458.338 314.727 461.742 316.144 466.074 316.144V315.144C461.979 315.144 458.882 313.817 456.708 311.208L455.939 311.848ZM466.074 316.144C468.283 316.144 470.276 315.792 472.044 315.078L471.669 314.151C470.04 314.809 468.177 315.144 466.074 315.144V316.144ZM472.044 315.078C473.815 314.363 475.487 313.21 477.061 311.636L476.354 310.929C474.857 312.426 473.295 313.494 471.669 314.151L472.044 315.078ZM476.284 311.549L477.362 313.264L478.209 312.732L477.131 311.017L476.284 311.549ZM477.417 312.66C474.686 315.642 470.942 317.153 466.123 317.153V318.153C471.17 318.153 475.201 316.56 478.154 313.335L477.417 312.66ZM489.519 315.497L489.788 315.075L489.788 315.075L489.519 315.497ZM484.276 309.372L483.821 309.579L483.823 309.584L484.276 309.372ZM484.276 290.556L484.73 290.766L484.731 290.763L484.276 290.556ZM489.47 284.48L489.734 284.904L489.739 284.901L489.47 284.48ZM505.64 284.48L505.371 284.901L505.378 284.906L505.64 284.48ZM510.883 290.556L510.428 290.763L510.429 290.766L510.883 290.556ZM510.834 309.372L510.381 309.159L510.379 309.164L510.834 309.372ZM505.64 315.497L505.909 315.918L505.64 315.497ZM507.11 311.528L506.724 311.21L506.724 311.21L507.11 311.528ZM507.11 288.449L506.721 288.763L506.726 288.768L507.11 288.449ZM488.049 288.449L488.433 288.768L488.435 288.766L488.049 288.449ZM488.049 311.528L487.661 311.843L487.663 311.845L488.049 311.528ZM497.555 317.153C494.531 317.153 491.949 316.453 489.788 315.075L489.25 315.918C491.597 317.415 494.372 318.153 497.555 318.153V317.153ZM489.788 315.075C487.621 313.693 485.934 311.728 484.729 309.159L483.823 309.584C485.101 312.308 486.909 314.425 489.25 315.918L489.788 315.075ZM484.731 309.164C483.558 306.597 482.963 303.535 482.963 299.964H481.963C481.963 303.644 482.576 306.854 483.821 309.579L484.731 309.164ZM482.963 299.964C482.963 296.359 483.559 293.298 484.73 290.766L483.822 290.346C482.576 293.04 481.963 296.252 481.963 299.964H482.963ZM484.731 290.763C485.903 288.198 487.572 286.252 489.734 284.904L489.206 284.055C486.86 285.517 485.067 287.622 483.821 290.348L484.731 290.763ZM489.739 284.901C491.899 283.524 494.497 282.824 497.555 282.824V281.824C494.341 281.824 491.549 282.561 489.201 284.058L489.739 284.901ZM497.555 282.824C500.613 282.824 503.211 283.524 505.371 284.901L505.909 284.058C503.561 282.561 500.769 281.824 497.555 281.824V282.824ZM505.378 284.906C507.573 286.254 509.257 288.2 510.428 290.763L511.338 290.348C510.091 287.62 508.28 285.515 505.902 284.054L505.378 284.906ZM510.429 290.766C511.601 293.298 512.196 296.343 512.196 299.915H513.196C513.196 296.234 512.583 293.04 511.337 290.346L510.429 290.766ZM512.196 299.915C512.196 303.518 511.585 306.594 510.381 309.159L511.287 309.584C512.566 306.857 513.196 303.629 513.196 299.915H512.196ZM510.379 309.164C509.207 311.73 507.537 313.694 505.371 315.075L505.909 315.918C508.251 314.425 510.044 312.305 511.289 309.579L510.379 309.164ZM505.371 315.075C503.211 316.453 500.613 317.153 497.555 317.153V318.153C500.769 318.153 503.561 317.415 505.909 315.918L505.371 315.075ZM497.555 316.144C501.794 316.144 505.132 314.724 507.496 311.845L506.724 311.21C504.58 313.82 501.548 315.144 497.555 315.144V316.144ZM507.496 311.845C509.848 308.982 510.991 304.999 510.991 299.964H509.991C509.991 304.859 508.88 308.586 506.724 311.21L507.496 311.845ZM510.991 299.964C510.991 294.929 509.848 290.961 507.494 288.129L506.726 288.768C508.879 291.359 509.991 295.068 509.991 299.964H510.991ZM507.499 288.134C505.165 285.252 501.825 283.833 497.555 283.833V284.833C501.582 284.833 504.612 286.158 506.721 288.763L507.499 288.134ZM497.555 283.833C493.347 283.833 490.026 285.254 487.663 288.131L488.435 288.766C490.58 286.156 493.596 284.833 497.555 284.833V283.833ZM487.665 288.129C485.31 290.961 484.168 294.929 484.168 299.964H485.168C485.168 295.068 486.279 291.359 488.433 288.768L487.665 288.129ZM484.168 299.964C484.168 304.968 485.311 308.949 487.661 311.843L488.437 311.213C486.279 308.554 485.168 304.825 485.168 299.964H484.168ZM487.663 311.845C490.026 314.723 493.347 316.144 497.555 316.144V315.144C493.596 315.144 490.58 313.821 488.435 311.21L487.663 311.845ZM530.499 317.261L530.04 317.458L530.17 317.761H530.499V317.261ZM515.652 282.716V282.216H514.893L515.193 282.913L515.652 282.716ZM517.857 282.716L518.316 282.518L518.186 282.216H517.857V282.716ZM531.626 314.762L531.167 314.959L531.626 316.028L532.085 314.959L531.626 314.762ZM545.395 282.716V282.216H545.066L544.936 282.518L545.395 282.716ZM547.551 282.716L548.01 282.913L548.31 282.216H547.551V282.716ZM532.704 317.261V317.761H533.033L533.163 317.458L532.704 317.261ZM530.958 317.063L516.111 282.518L515.193 282.913L530.04 317.458L530.958 317.063ZM515.652 283.216H517.857V282.216H515.652V283.216ZM517.398 282.913L531.167 314.959L532.085 314.564L518.316 282.518L517.398 282.913ZM532.085 314.959L545.854 282.913L544.936 282.518L531.167 314.564L532.085 314.959ZM545.395 283.216H547.551V282.216H545.395V283.216ZM547.092 282.518L532.245 317.063L533.163 317.458L548.01 282.913L547.092 282.518ZM532.704 316.761H530.499V317.761H532.704V316.761ZM552.647 317.261H552.147V317.761H552.647V317.261ZM552.647 282.716V282.216H552.147V282.716H552.647ZM554.705 282.716H555.205V282.216H554.705V282.716ZM554.705 317.261V317.761H555.205V317.261H554.705ZM553.147 317.261V282.716H552.147V317.261H553.147ZM552.647 283.216H554.705V282.216H552.647V283.216ZM554.205 282.716V317.261H555.205V282.716H554.205ZM554.705 316.761H552.647V317.761H554.705V316.761ZM564.131 317.261H563.631V317.761H564.131V317.261ZM564.131 282.716V282.216H563.631V282.716H564.131ZM587.259 287.126L586.904 287.477L586.907 287.481L587.259 287.126ZM587.259 312.851L586.904 312.499L586.904 312.499L587.259 312.851ZM566.189 315.35H565.689V315.85H566.189V315.35ZM566.189 284.627V284.127H565.689V284.627H566.189ZM564.631 317.261V282.716H563.631V317.261H564.631ZM564.131 283.216H574.764V282.216H564.131V283.216ZM574.764 283.216C580.096 283.216 584.117 284.659 586.904 287.477L587.615 286.774C584.587 283.712 580.277 282.216 574.764 282.216V283.216ZM586.907 287.481C589.722 290.264 591.169 294.396 591.169 299.964H592.169C592.169 294.229 590.676 289.802 587.611 286.77L586.907 287.481ZM591.169 299.964C591.169 305.497 589.723 309.649 586.904 312.499L587.615 313.202C590.675 310.107 592.169 305.667 592.169 299.964H591.169ZM586.904 312.499C584.117 315.317 580.096 316.761 574.764 316.761V317.761C580.277 317.761 584.587 316.264 587.615 313.202L586.904 312.499ZM574.764 316.761H564.131V317.761H574.764V316.761ZM566.189 315.85H574.568V314.85H566.189V315.85ZM574.568 315.85C579.615 315.85 583.49 314.546 586.099 311.851C588.705 309.159 589.964 305.165 589.964 299.964H588.964C588.964 305.019 587.74 308.718 585.381 311.155C583.024 313.589 579.452 314.85 574.568 314.85V315.85ZM589.964 299.964C589.964 294.778 588.705 290.796 586.099 288.113C583.49 285.426 579.614 284.127 574.568 284.127V285.127C579.453 285.127 583.025 286.383 585.381 288.809C587.74 291.238 588.964 294.925 588.964 299.964H589.964ZM574.568 284.127H566.189V285.127H574.568V284.127ZM565.689 284.627V315.35H566.689V284.627H565.689ZM598.657 305.207H598.157V305.707H598.657V305.207ZM598.657 303.345V302.845H598.157V303.345H598.657ZM611.593 303.345H612.093V302.845H611.593V303.345ZM611.593 305.207V305.707H612.093V305.207H611.593ZM599.157 305.207V303.345H598.157V305.207H599.157ZM598.657 303.845H611.593V302.845H598.657V303.845ZM611.093 303.345V305.207H612.093V303.345H611.093ZM611.593 304.707H598.657V305.707H611.593V304.707ZM622.08 317.261H621.58V317.761H622.08V317.261ZM622.08 315.35V314.85H621.58V315.35H622.08ZM630.018 315.35V315.85H630.518V315.35H630.018ZM630.018 285.46H630.518V284.523L629.74 285.044L630.018 285.46ZM623.648 289.723L623.232 290L623.51 290.417L623.926 290.138L623.648 289.723ZM622.57 288.106L622.29 287.691L621.878 287.969L622.154 288.383L622.57 288.106ZM630.557 282.716V282.216H630.404L630.277 282.301L630.557 282.716ZM632.076 282.716H632.576V282.216H632.076V282.716ZM632.076 315.35H631.576V315.85H632.076V315.35ZM639.524 315.35H640.024V314.85H639.524V315.35ZM639.524 317.261V317.761H640.024V317.261H639.524ZM622.58 317.261V315.35H621.58V317.261H622.58ZM622.08 315.85H630.018V314.85H622.08V315.85ZM630.518 315.35V285.46H629.518V315.35H630.518ZM629.74 285.044L623.37 289.307L623.926 290.138L630.296 285.875L629.74 285.044ZM624.064 289.445L622.986 287.828L622.154 288.383L623.232 290L624.064 289.445ZM622.849 288.52L630.836 283.13L630.277 282.301L622.29 287.691L622.849 288.52ZM630.557 283.216H632.076V282.216H630.557V283.216ZM631.576 282.716V315.35H632.576V282.716H631.576ZM632.076 315.85H639.524V314.85H632.076V315.85ZM639.024 315.35V317.261H640.024V315.35H639.024ZM639.524 316.761H622.08V317.761H639.524V316.761ZM652.049 316.428L651.838 316.881L651.842 316.883L652.049 316.428ZM647.835 313.243L647.397 313L647.235 313.293L647.444 313.555L647.835 313.243ZM648.815 311.479L649.194 311.153L648.726 310.609L648.377 311.236L648.815 311.479ZM652.833 314.615L652.621 315.068L652.833 314.615ZM665.475 311.577L665.882 311.866L665.884 311.864L665.475 311.577ZM668.366 295.897H668.866L667.879 295.783L668.366 295.897ZM664.74 301.826L664.431 301.433L664.427 301.435L664.74 301.826ZM652.735 302.61L652.483 303.042L652.486 303.044L652.735 302.61ZM649.011 298.788L648.571 299.025L648.574 299.032L649.011 298.788ZM649.06 287.567L649.496 287.811L649.496 287.811L649.06 287.567ZM652.784 283.745L653.035 284.177L653.038 284.175L652.784 283.745ZM667.288 286.685L666.882 286.977L666.884 286.98L667.288 286.685ZM666.994 312.851L667.398 313.144L667.4 313.142L666.994 312.851ZM662.927 300.846L662.677 300.412L662.673 300.415L662.927 300.846ZM665.965 297.759L665.528 297.514L665.526 297.518L665.965 297.759ZM665.965 288.596L665.524 288.832L665.527 288.839L665.531 288.845L665.965 288.596ZM662.927 285.46L662.673 285.89L662.677 285.893L662.927 285.46ZM653.96 285.46L653.71 285.026L653.706 285.029L653.96 285.46ZM650.922 288.596L650.485 288.351L650.483 288.355L650.922 288.596ZM650.922 297.759L650.481 297.995L650.484 298.002L650.488 298.008L650.922 297.759ZM653.96 300.846L653.706 301.276L653.71 301.279L653.96 300.846ZM657.292 317.153C655.675 317.153 653.998 316.764 652.255 315.973L651.842 316.883C653.693 317.724 655.511 318.153 657.292 318.153V317.153ZM652.259 315.974C650.554 315.185 649.215 314.168 648.225 312.93L647.444 313.555C648.545 314.931 650.016 316.038 651.838 316.881L652.259 315.974ZM648.272 313.486L649.252 311.722L648.377 311.236L647.397 313L648.272 313.486ZM648.436 311.805C649.684 313.256 651.078 314.348 652.621 315.068L653.044 314.162C651.647 313.51 650.363 312.511 649.194 311.153L648.436 311.805ZM652.621 315.068C654.153 315.783 655.728 316.144 657.341 316.144V315.144C655.882 315.144 654.452 314.819 653.044 314.162L652.621 315.068ZM657.341 316.144C660.988 316.144 663.855 314.717 665.882 311.866L665.067 311.287C663.239 313.859 660.684 315.144 657.341 315.144V316.144ZM665.884 311.864C667.896 308.999 668.866 304.811 668.866 299.376H667.866C667.866 304.72 666.908 308.667 665.065 311.289L665.884 311.864ZM668.866 299.376V295.897H667.866V299.376H668.866ZM667.879 295.783C667.314 298.201 666.161 300.073 664.431 301.433L665.048 302.219C666.977 300.704 668.242 298.624 668.852 296.011L667.879 295.783ZM664.427 301.435C662.728 302.795 660.685 303.482 658.272 303.482V304.482C660.889 304.482 663.158 303.731 665.052 302.216L664.427 301.435ZM658.272 303.482C656.256 303.482 654.498 303.042 652.983 302.176L652.486 303.044C654.172 304.007 656.106 304.482 658.272 304.482V303.482ZM652.986 302.178C651.498 301.31 650.319 300.101 649.447 298.543L648.574 299.032C649.531 300.741 650.835 302.081 652.483 303.042L652.986 302.178ZM649.451 298.55C648.613 296.999 648.188 295.22 648.188 293.202H647.188C647.188 295.365 647.644 297.31 648.571 299.025L649.451 298.55ZM648.188 293.202C648.188 291.152 648.628 289.36 649.496 287.811L648.623 287.322C647.661 289.04 647.188 291.005 647.188 293.202H648.188ZM649.496 287.811C650.368 286.253 651.547 285.045 653.035 284.177L652.532 283.313C650.884 284.274 649.58 285.614 648.623 287.322L649.496 287.811ZM653.038 284.175C654.554 283.278 656.293 282.824 658.272 282.824V281.824C656.134 281.824 654.215 282.317 652.529 283.314L653.038 284.175ZM658.272 282.824C662.048 282.824 664.895 284.214 666.882 286.977L667.693 286.393C665.499 283.341 662.335 281.824 658.272 281.824V282.824ZM666.884 286.98C668.922 289.77 669.973 293.735 669.973 298.935H670.973C670.973 293.616 669.9 289.414 667.691 286.39L666.884 286.98ZM669.973 298.935C669.973 304.925 668.821 309.444 666.587 312.559L667.4 313.142C669.804 309.789 670.973 305.032 670.973 298.935H669.973ZM666.589 312.557C664.369 315.622 661.289 317.153 657.292 317.153V318.153C661.591 318.153 664.98 316.483 667.398 313.144L666.589 312.557ZM658.468 302.473C660.242 302.473 661.819 302.08 663.181 301.276L662.673 300.415C661.486 301.115 660.09 301.473 658.468 301.473V302.473ZM663.176 301.279C664.561 300.483 665.639 299.388 666.403 298L665.526 297.518C664.852 298.743 663.905 299.706 662.677 300.412L663.176 301.279ZM666.401 298.003C667.199 296.58 667.592 294.959 667.592 293.153H666.592C666.592 294.81 666.233 296.259 665.528 297.514L666.401 298.003ZM667.592 293.153C667.592 291.347 667.199 289.74 666.398 288.347L665.531 288.845C666.233 290.065 666.592 291.496 666.592 293.153H667.592ZM666.405 288.359C665.643 286.938 664.564 285.825 663.176 285.026L662.677 285.893C663.902 286.598 664.849 287.574 665.524 288.832L666.405 288.359ZM663.181 285.029C661.819 284.226 660.242 283.833 658.468 283.833V284.833C660.09 284.833 661.486 285.191 662.673 285.89L663.181 285.029ZM658.468 283.833C656.693 283.833 655.102 284.226 653.71 285.026L654.209 285.893C655.43 285.191 656.845 284.833 658.468 284.833V283.833ZM653.706 285.029C652.353 285.827 651.278 286.938 650.485 288.351L651.358 288.84C652.067 287.575 653.019 286.595 654.214 285.89L653.706 285.029ZM650.483 288.355C649.718 289.746 649.344 291.351 649.344 293.153H650.344C650.344 291.492 650.688 290.058 651.36 288.837L650.483 288.355ZM649.344 293.153C649.344 294.955 649.718 296.574 650.481 297.995L651.362 297.522C650.688 296.265 650.344 294.813 650.344 293.153H649.344ZM650.488 298.008C651.282 299.388 652.356 300.48 653.706 301.276L654.214 300.415C653.016 299.709 652.064 298.743 651.355 297.51L650.488 298.008ZM653.71 301.279C655.102 302.079 656.693 302.473 658.468 302.473V301.473C656.845 301.473 655.43 301.115 654.209 300.412L653.71 301.279Z" fill="black"/>
</g>
<circle cx="334.5" cy="110.5" r="6" fill="#000B6D" stroke="#540101" stroke-width="3"/>
<circle cx="382.5" cy="344.5" r="6" fill="#000B6D" stroke="#540101" stroke-width="3"/>
<circle cx="305.5" cy="347.5" r="6" fill="#000B6D" stroke="#540101" stroke-width="3"/>
<path d="M258 156.5C258 161.194 254.194 165 249.5 165C244.806 165 241 161.194 241 156.5C241 151.806 244.806 148 249.5 148C254.194 148 258 151.806 258 156.5ZM249 265.5C249 270.194 245.194 274 240.5 274C235.806 274 232 270.194 232 265.5C232 260.806 235.806 257 240.5 257C245.194 257 249 260.806 249 265.5ZM263 206.5C263 211.194 259.194 215 254.5 215C249.806 215 246 211.194 246 206.5C246 201.806 249.806 198 254.5 198C259.194 198 263 201.806 263 206.5Z" fill="#000B6D"/>
<path d="M258 156.5C258 161.194 254.194 165 249.5 165C244.806 165 241 161.194 241 156.5C241 151.806 244.806 148 249.5 148C254.194 148 258 151.806 258 156.5ZM249 265.5C249 270.194 245.194 274 240.5 274C235.806 274 232 270.194 232 265.5C232 260.806 235.806 257 240.5 257C245.194 257 249 260.806 249 265.5ZM263 206.5C263 211.194 259.194 215 254.5 215C249.806 215 246 211.194 246 206.5C246 201.806 249.806 198 254.5 198C259.194 198 263 201.806 263 206.5Z" stroke="#810707" stroke-width="2"/>
<path d="M258 156.5C258 161.194 254.194 165 249.5 165C244.806 165 241 161.194 241 156.5C241 151.806 244.806 148 249.5 148C254.194 148 258 151.806 258 156.5ZM249 265.5C249 270.194 245.194 274 240.5 274C235.806 274 232 270.194 232 265.5C232 260.806 235.806 257 240.5 257C245.194 257 249 260.806 249 265.5ZM263 206.5C263 211.194 259.194 215 254.5 215C249.806 215 246 211.194 246 206.5C246 201.806 249.806 198 254.5 198C259.194 198 263 201.806 263 206.5Z" stroke="#810707" stroke-width="2"/>
<path d="M258 156.5C258 161.194 254.194 165 249.5 165C244.806 165 241 161.194 241 156.5C241 151.806 244.806 148 249.5 148C254.194 148 258 151.806 258 156.5ZM249 265.5C249 270.194 245.194 274 240.5 274C235.806 274 232 270.194 232 265.5C232 260.806 235.806 257 240.5 257C245.194 257 249 260.806 249 265.5ZM263 206.5C263 211.194 259.194 215 254.5 215C249.806 215 246 211.194 246 206.5C246 201.806 249.806 198 254.5 198C259.194 198 263 201.806 263 206.5Z" stroke="#810707" stroke-width="2"/>
<path d="M258 156.5C258 161.194 254.194 165 249.5 165C244.806 165 241 161.194 241 156.5C241 151.806 244.806 148 249.5 148C254.194 148 258 151.806 258 156.5ZM249 265.5C249 270.194 245.194 274 240.5 274C235.806 274 232 270.194 232 265.5C232 260.806 235.806 257 240.5 257C245.194 257 249 260.806 249 265.5ZM263 206.5C263 211.194 259.194 215 254.5 215C249.806 215 246 211.194 246 206.5C246 201.806 249.806 198 254.5 198C259.194 198 263 201.806 263 206.5Z" stroke="#810707" stroke-width="2"/>
<path d="M258 156.5C258 161.194 254.194 165 249.5 165C244.806 165 241 161.194 241 156.5C241 151.806 244.806 148 249.5 148C254.194 148 258 151.806 258 156.5ZM249 265.5C249 270.194 245.194 274 240.5 274C235.806 274 232 270.194 232 265.5C232 260.806 235.806 257 240.5 257C245.194 257 249 260.806 249 265.5ZM263 206.5C263 211.194 259.194 215 254.5 215C249.806 215 246 211.194 246 206.5C246 201.806 249.806 198 254.5 198C259.194 198 263 201.806 263 206.5Z" stroke="#810707" stroke-width="2"/>
<defs>
<filter id="filter0_d" x="217" y="92" width="187.85" height="288.569" filterUnits="userSpaceOnUse" color-interpolation-filters="sRGB">
<feFlood flood-opacity="0" result="BackgroundImageFix"/>
<feColorMatrix in="SourceAlpha" type="matrix" values="0 0 0 0 0 0 0 0 0 0 0 0 0 0 0 0 0 0 127 0"/>
<feOffset dy="4"/>
<feGaussianBlur stdDeviation="2"/>
<feColorMatrix type="matrix" values="0 0 0 0 0 0 0 0 0 0 0 0 0 0 0 0 0 0 0.25 0"/>
<feBlend mode="normal" in2="BackgroundImageFix" result="effect1_dropShadow"/>
<feBlend mode="normal" in="SourceGraphic" in2="effect1_dropShadow" result="shape"/>
</filter>
<filter id="filter1_d" x="339.519" y="197.411" width="453.599" height="55.255" filterUnits="userSpaceOnUse" color-interpolation-filters="sRGB">
<feFlood flood-opacity="0" result="BackgroundImageFix"/>
<feColorMatrix in="SourceAlpha" type="matrix" values="0 0 0 0 0 0 0 0 0 0 0 0 0 0 0 0 0 0 127 0"/>
<feOffset dy="4"/>
<feGaussianBlur stdDeviation="2"/>
<feColorMatrix type="matrix" values="0 0 0 0 0 0 0 0 0 0 0 0 0 0 0 0 0 0 0.25 0"/>
<feBlend mode="normal" in2="BackgroundImageFix" result="effect1_dropShadow"/>
<feBlend mode="normal" in="SourceGraphic" in2="effect1_dropShadow" result="shape"/>
</filter>
<filter id="filter2_d" x="446.237" y="281.824" width="228.735" height="44.329" filterUnits="userSpaceOnUse" color-interpolation-filters="sRGB">
<feFlood flood-opacity="0" result="BackgroundImageFix"/>
<feColorMatrix in="SourceAlpha" type="matrix" values="0 0 0 0 0 0 0 0 0 0 0 0 0 0 0 0 0 0 127 0"/>
<feOffset dy="4"/>
<feGaussianBlur stdDeviation="2"/>
<feColorMatrix type="matrix" values="0 0 0 0 0 0 0 0 0 0 0 0 0 0 0 0 0 0 0.25 0"/>
<feBlend mode="normal" in2="BackgroundImageFix" result="effect1_dropShadow"/>
<feBlend mode="normal" in="SourceGraphic" in2="effect1_dropShadow" result="shape"/>
</filter>
</defs>
</svg>
