<svg width="234" height="228" viewBox="0 0 234 228" fill="none" xmlns="http://www.w3.org/2000/svg">
<g filter="url(#filter0_d)">
<path d="M13 81.0001C15.6109 79.5003 123.5 38.5001 123.5 38.5001L222.5 0.500128C222.5 0.500128 224.5 -0.499916 226 0.500128C227.5 1.50017 227.5 1.50013 227.5 1.50013C227.5 1.50013 228 2.00026 229 3.00013C230 4 228.5 7.00013 228.5 7.00013L227.5 9.50013C227.5 9.50013 159.882 193.5 159.5 194.5C159.118 195.5 157.337 197.273 155.5 198.5C153.901 199.568 151 200.5 151 200.5C151 200.5 147.559 201.112 145.5 200.5C144.244 200.127 142.5 199 142.5 199L75 151.5L215.5 12.5001L57 137.5C57 137.5 7.00007 101 6.49998 99.5001C5.99989 98 4 94 4.49998 92.0001C4.99997 90.0003 5.40435 88.7952 6.49998 87.0001C8.29972 84.0514 10.3891 82.5 13 81.0001Z" fill="black"/>
<path d="M53.5 194.5C52.9992 192.001 46.4993 148.001 46.4993 148.001L99.9966 187.005C99.9966 187.005 69.9932 208.511 68.9966 209.005C68 209.5 65.0007 209.005 65.0007 209.005C65.0007 209.005 63.1285 208.874 62.0007 208.5C60.2521 207.921 59.3642 207.239 58.0007 206C56.5558 204.687 55.8266 203.771 55.0007 202.002C53.832 199.499 54.0008 196.999 53.5 194.5Z" fill="black"/>
</g>
<defs>
<filter id="filter0_d" x="0.42041" y="0.0556641" width="232.923" height="227.479" filterUnits="userSpaceOnUse" color-interpolation-filters="sRGB">
<feFlood flood-opacity="0" result="BackgroundImageFix"/>
<feColorMatrix in="SourceAlpha" type="matrix" values="0 0 0 0 0 0 0 0 0 0 0 0 0 0 0 0 0 0 127 0"/>
<feOffset dy="4"/>
<feGaussianBlur stdDeviation="2"/>
<feColorMatrix type="matrix" values="0 0 0 0 0 0 0 0 0 0 0 0 0 0 0 0 0 0 0.25 0"/>
<feBlend mode="normal" in2="BackgroundImageFix" result="effect1_dropShadow"/>
<feBlend mode="normal" in="SourceGraphic" in2="effect1_dropShadow" result="shape"/>
</filter>
</defs>
</svg>
